<svg width="127" height="70" viewBox="0 0 127 70" fill="none" xmlns="http://www.w3.org/2000/svg">
<g clip-path="url(#clip0_241_14373)">
<path fill-rule="evenodd" clip-rule="evenodd" d="M123.284 53.2451C123.538 52.753 123.556 52.0895 124.227 52.2733C125.225 52.8752 122.919 55.6044 122.381 56.2366C122.288 56.3442 122.243 56.4013 122.176 56.4742L120.362 58.0568C119.348 58.8089 119.318 58.5332 118.778 59.8502C117.572 62.7924 116.366 66.712 113.728 68.2307C111.572 69.4715 110.002 67.3452 110.57 65.2975C111.237 62.8955 113.301 61.2288 115.24 59.8356C117.745 58.0366 117.43 59.1328 118.527 56.3487C118.851 55.5293 119.371 54.6114 119.495 54.0296C118.642 54.784 116.52 58.3012 114.66 57.947C112.334 57.5031 115.345 52.5849 115.795 51.8328C116.066 51.38 117.537 49.2179 118.189 49.0643C118.561 48.978 118.729 49.0565 118.902 49.182C120.282 50.1762 115.61 52.7934 115.696 55.8454C117.154 55.7838 119.486 52.5143 120.29 51.3239L121.824 49.0509C122.166 48.616 122.324 48.3414 123.133 48.523C123.707 49.5362 122.629 51.1894 121.905 52.5344C121.577 53.1431 121.197 53.7629 120.938 54.4701C120.663 55.2233 120.372 55.7356 120.123 56.5594C121.16 55.7412 122.699 54.3793 123.284 53.2451ZM113.784 62.7464C112.977 63.559 111.381 65.7738 112.375 66.6066C113.074 67.1928 113.964 66.1964 114.256 65.8803C115.702 64.319 116.734 60.711 116.984 60.331C116.262 60.6718 114.364 62.1625 113.784 62.7464ZM93.1438 54.3973C91.7852 55.7759 93.1236 58.8806 97.0706 57.4673C98.0753 57.1075 98.9657 56.4148 99.3723 55.4789C100.836 52.104 93.9256 48.9881 96.6315 43.1452C97.3204 41.6567 99.202 39.638 100.658 38.7884C101.581 38.2493 102.453 37.6822 103.644 37.4378C105.069 37.1475 106.24 37.3213 106.856 38.209C107.517 39.1606 107.15 40.5011 106.703 41.4202C105.752 43.3738 102.941 45.8397 101.114 46.4662C98.7002 47.2934 99.3319 45.2725 101.803 44.2548C103.197 43.4108 105.697 41.502 105.604 39.8062C105.479 37.5286 100.596 39.6425 98.4572 43.1339C95.4701 48.0107 101.385 50.6895 101.309 54.8658C101.238 58.754 93.5952 61.5505 91.298 57.3182C90.4848 55.8208 90.953 53.9501 92.2601 53.0007C92.8907 52.5434 93.4943 52.308 94.2705 52.289C95.4499 53.764 93.9569 53.5701 93.1438 54.3973ZM110.741 43.4534C110.351 44.0048 108.115 47.8493 108.103 48.4075C113.897 43.4276 116.825 34.861 110.741 43.4534ZM108.895 50.1213C109.321 49.8074 111.295 48.5835 111.931 48.8222C112.361 48.9836 112.422 49.3748 112.188 49.7469C111.419 50.9686 109.074 49.3423 108.364 54.7291C108.02 57.3462 109.756 58.0658 112.006 55.3153C114.656 51.0706 114.623 53.9669 112.837 56.185C111.996 57.2308 110.278 59.5094 108.297 58.7316C106.302 57.947 107.181 54.0386 107.239 53.3258C105.886 54.5598 104.141 58.2115 103.757 58.439C101.36 59.8535 104.442 53.1184 104.588 52.799L106.601 48.4176C106.921 47.8583 107.07 47.568 107.349 46.9863C108.228 45.147 111.593 39.9239 113.196 38.7784C113.731 38.3962 114.639 37.5488 115.449 37.7651C117.388 38.2852 115.112 42.4469 114.07 43.7045C113.027 45.1952 106.979 51.074 106.509 51.4596C106.325 51.8429 105.963 52.7429 105.892 53.0377C106.284 52.8337 107.57 51.093 108.895 50.1213Z" fill="#317CFC"/>
<path fill-rule="evenodd" clip-rule="evenodd" d="M48.2725 54.6237V54.7122C48.1403 54.7335 48.0216 54.8008 47.9174 54.9151C47.8424 55.0003 47.7304 55.2009 47.5803 55.5181L46.3281 58.1611H46.2385L44.9919 55.4094C44.8407 55.0765 44.7399 54.8804 44.6895 54.8232C44.638 54.7649 44.5417 54.7279 44.3994 54.7122V54.6237H46.1433V54.7122H46.0839C45.926 54.7122 45.8174 54.7313 45.7602 54.7705C45.7188 54.7952 45.6986 54.8333 45.6986 54.8837C45.6986 54.9151 45.7054 54.9521 45.7199 54.9947C45.7349 55.0365 45.7838 55.1494 45.8667 55.3332L46.6451 57.0514L47.363 55.5226C47.4504 55.3343 47.5053 55.2088 47.5243 55.146C47.5445 55.0821 47.5545 55.0283 47.5545 54.9835C47.5545 54.9319 47.54 54.886 47.512 54.8467C47.4817 54.8075 47.4403 54.7772 47.3843 54.7559C47.307 54.7279 47.2051 54.7122 47.0774 54.7122V54.6237H48.2725ZM50.3456 57.9941V58.0837H48.4416V57.9941H48.5626C48.6678 57.9941 48.753 57.9761 48.8179 57.9403C48.865 57.9167 48.9008 57.8753 48.9254 57.817C48.9445 57.7766 48.9546 57.6679 48.9546 57.4942V55.2132C48.9546 55.035 48.9445 54.9241 48.9254 54.8792C48.9053 54.8355 48.8661 54.7963 48.8056 54.7627C48.7462 54.729 48.6656 54.7122 48.5626 54.7122H48.4416V54.6237H50.3456V54.7122H50.2247C50.1194 54.7122 50.0354 54.7313 49.9704 54.766C49.9245 54.7907 49.8887 54.8322 49.8618 54.8904C49.8416 54.9308 49.8316 55.0384 49.8316 55.2132V57.4942C49.8316 57.672 49.842 57.783 49.8629 57.8271C49.8831 57.8719 49.9234 57.9111 49.9828 57.9436C50.0421 57.9784 50.1239 57.9941 50.2247 57.9941H50.3456ZM53.0718 54.5452L53.0998 55.6986H52.9889C52.9374 55.4105 52.8086 55.1774 52.6047 55.0025C52.3998 54.8266 52.1791 54.7391 51.9417 54.7391C51.758 54.7391 51.6124 54.7851 51.506 54.8781C51.3985 54.97 51.3447 55.0765 51.3447 55.1964C51.3447 55.2738 51.3649 55.341 51.4018 55.4016C51.4533 55.48 51.5374 55.5596 51.6527 55.638C51.7378 55.693 51.9327 55.7938 52.2385 55.9362C52.6663 56.1346 52.9553 56.3218 53.1043 56.4989C53.2521 56.6748 53.326 56.8766 53.326 57.1052C53.326 57.3933 53.2062 57.641 52.9688 57.8495C52.7302 58.0568 52.4278 58.1611 52.0604 58.1611C51.9462 58.1611 51.8364 58.1499 51.7345 58.1286C51.6314 58.1069 51.5026 58.065 51.3481 58.003C51.2618 57.9694 51.1913 57.9526 51.1341 57.9526C51.0882 57.9526 51.0389 57.9705 50.9863 58.0041C50.9337 58.0389 50.8922 58.0916 50.8597 58.1611H50.7657V56.8575H50.8597C50.9393 57.2229 51.0916 57.5031 51.3167 57.6948C51.543 57.8876 51.786 57.984 52.047 57.984C52.2486 57.984 52.4087 57.9324 52.5286 57.8282C52.6484 57.7251 52.7078 57.6051 52.7078 57.4661C52.7078 57.3854 52.6854 57.307 52.6395 57.2296C52.5935 57.1534 52.5241 57.0817 52.43 57.0122C52.3367 56.9435 52.1713 56.8538 51.9338 56.7432C51.6012 56.5896 51.3615 56.4574 51.217 56.3487C51.0725 56.2399 50.9605 56.1178 50.8821 55.9844C50.8049 55.8488 50.7657 55.7008 50.7657 55.5405C50.7657 55.2648 50.8721 55.0306 51.0871 54.8366C51.2999 54.6416 51.5698 54.5452 51.8946 54.5452C52.0134 54.5452 52.1287 54.5587 52.2396 54.5856C52.3247 54.6069 52.4278 54.6439 52.5487 54.6988C52.6708 54.7537 52.7548 54.7806 52.8041 54.7806C52.85 54.7806 52.887 54.7672 52.9139 54.7403C52.9407 54.7134 52.9665 54.6483 52.9889 54.5452H53.0718ZM55.8371 57.0974H54.5581L54.399 57.4348C54.3486 57.548 54.324 57.641 54.324 57.715C54.324 57.8136 54.3654 57.8853 54.4472 57.9324C54.4953 57.9593 54.6152 57.9806 54.8056 57.9941V58.0837H53.5904V57.9941C53.7214 57.975 53.8301 57.9234 53.9141 57.8394C53.9981 57.7531 54.1033 57.5782 54.2265 57.3115L55.5325 54.5564H55.584L56.9012 57.3888C57.0277 57.66 57.1297 57.8315 57.2114 57.901C57.273 57.9548 57.3581 57.9862 57.4701 57.9941V58.0837H55.7027V57.9941H55.7755C55.9178 57.9941 56.0175 57.975 56.0746 57.9369C56.1138 57.91 56.1339 57.8696 56.1339 57.8192C56.1339 57.7878 56.1283 57.7553 56.1183 57.7228C56.1138 57.7071 56.0869 57.6421 56.0365 57.5289L55.8371 57.0974ZM55.7509 56.9091L55.2054 55.7311L54.6477 56.9091H55.7509ZM62.5797 54.5452L62.6066 55.6986H62.4968C62.4442 55.4094 62.3165 55.1774 62.1127 55.0025C61.9077 54.8266 61.687 54.738 61.4496 54.738C61.2648 54.738 61.1203 54.7851 61.0139 54.8781C60.9053 54.97 60.8526 55.0765 60.8526 55.1964C60.8526 55.2738 60.8717 55.341 60.9098 55.4016C60.9613 55.48 61.0442 55.5596 61.1606 55.638C61.2446 55.693 61.4395 55.7938 61.7453 55.9362C62.1743 56.1346 62.4621 56.3218 62.6111 56.4989C62.76 56.6748 62.8328 56.8766 62.8328 57.1052C62.8328 57.3933 62.7141 57.641 62.4755 57.8495C62.237 58.0568 61.9346 58.1611 61.5683 58.1611C61.453 58.1611 61.3432 58.1499 61.2413 58.1286C61.1382 58.1069 61.0094 58.065 60.8549 58.003C60.7686 57.9694 60.6981 57.9526 60.6421 57.9526C60.595 57.9526 60.5457 57.9694 60.4942 58.0041C60.4416 58.0389 60.399 58.0904 60.3665 58.1611H60.2736V56.8564H60.3665C60.4461 57.2229 60.5984 57.5031 60.8235 57.6948C61.0498 57.8876 61.2928 57.984 61.5538 57.984C61.7554 57.984 61.9167 57.9313 62.0365 57.8282C62.1552 57.7251 62.2157 57.6051 62.2157 57.4661C62.2157 57.3854 62.1922 57.307 62.1463 57.2296C62.1003 57.1534 62.0309 57.0817 61.9379 57.0122C61.8439 56.9435 61.6781 56.8538 61.4406 56.7432C61.108 56.5885 60.8694 56.4574 60.7238 56.3487C60.5793 56.2399 60.4685 56.1178 60.3901 55.9833C60.3117 55.8488 60.2736 55.7008 60.2736 55.5405C60.2736 55.2648 60.38 55.0294 60.5939 54.8355C60.8078 54.6416 61.0766 54.5452 61.4026 54.5452C61.5213 54.5452 61.6355 54.5587 61.7475 54.5856C61.8315 54.6058 61.9346 54.6439 62.0567 54.6988C62.1776 54.7537 62.2616 54.7806 62.3109 54.7806C62.3579 54.7806 62.3949 54.7672 62.4218 54.7403C62.4475 54.7134 62.4733 54.6483 62.4968 54.5452H62.5797ZM64.5554 54.8221V56.231H64.6282C64.8612 56.231 65.0292 56.1615 65.1345 56.0247C65.2375 55.8869 65.3047 55.6851 65.3339 55.4172H65.438V57.2274H65.3339C65.3126 57.0301 65.2667 56.8676 65.1972 56.7432C65.1278 56.6165 65.0471 56.5325 64.9553 56.4888C64.8634 56.4454 64.7302 56.4238 64.5554 56.4238V57.3955C64.5554 57.5861 64.5644 57.7026 64.5812 57.7452C64.598 57.7878 64.6305 57.8226 64.6775 57.8495C64.7234 57.8764 64.7996 57.8898 64.9027 57.8898H65.1222C65.4627 57.8898 65.7371 57.8147 65.9432 57.6668C66.1492 57.5177 66.2971 57.2913 66.3867 56.9842H66.4864L66.3217 58.0826H63.1655V57.9941H63.2853C63.3917 57.9941 63.4769 57.9761 63.5418 57.9403C63.5877 57.9156 63.6236 57.8753 63.6493 57.817C63.6684 57.7755 63.6785 57.6679 63.6785 57.493V55.2132C63.6785 55.0563 63.674 54.9588 63.665 54.923C63.6471 54.8632 63.6139 54.8172 63.5653 54.7851C63.497 54.7369 63.4041 54.7122 63.2853 54.7122H63.1655V54.6237H66.222V55.6459H66.1168C66.0652 55.3959 65.9924 55.2166 65.8984 55.1079C65.8043 54.9992 65.6721 54.9196 65.4996 54.868C65.3999 54.8378 65.2118 54.8221 64.9363 54.8221H64.5554ZM68.2023 56.5078V57.483C68.2023 57.669 68.2146 57.7878 68.2392 57.8349C68.2627 57.8842 68.3064 57.9223 68.3669 57.9503C68.4285 57.9795 68.5427 57.9941 68.7096 57.9941V58.0826H66.8392V57.9941C67.0083 57.9941 67.1237 57.9795 67.183 57.9503C67.2446 57.9201 67.2861 57.8809 67.3107 57.8338C67.3354 57.7867 67.3477 57.669 67.3477 57.483V55.2233C67.3477 55.0373 67.3354 54.9196 67.3107 54.8714C67.2861 54.8232 67.2435 54.7851 67.183 54.7559C67.1214 54.7268 67.0072 54.7122 66.8392 54.7122V54.6237H68.5394C68.9818 54.6237 69.3044 54.6528 69.5093 54.7111C69.7139 54.7679 69.8812 54.8748 70.0111 55.0317C70.141 55.1875 70.2049 55.3702 70.2049 55.5798C70.2049 55.8342 70.1074 56.046 69.9137 56.2119C69.7897 56.318 69.6161 56.3972 69.3928 56.4495L70.2687 57.6208C70.3841 57.7721 70.4669 57.8652 70.5162 57.9033C70.589 57.9548 70.6764 57.984 70.7738 57.9896V58.0826H69.6224L68.4419 56.5078H68.2023ZM68.2023 54.8165V56.3251H68.3568C68.6066 56.3251 68.7936 56.3027 68.918 56.2601C69.0423 56.2164 69.1397 56.1391 69.2103 56.0259C69.2808 55.9138 69.3167 55.7669 69.3167 55.5865C69.3167 55.3235 69.2517 55.1296 69.1218 55.0048C68.9908 54.8792 68.7813 54.8165 68.4912 54.8165H68.2023ZM74.4509 54.6237V54.7122C74.3187 54.7335 74.2 54.8008 74.0958 54.9151C74.0208 55.0003 73.9088 55.2009 73.7587 55.5181L72.5065 58.1611H72.4169L71.1703 55.4094C71.0191 55.0754 70.9183 54.8804 70.8679 54.8232C70.8164 54.7649 70.719 54.7279 70.5778 54.7122V54.6237H72.3217V54.7122H72.2624C72.1044 54.7122 71.9958 54.7313 71.9387 54.7694C71.8972 54.7952 71.8771 54.8333 71.8771 54.8837C71.8771 54.9151 71.8838 54.9521 71.8983 54.9947C71.9133 55.0358 71.9618 55.1486 72.0439 55.3332L72.8235 57.0514L73.5414 55.5215C73.6288 55.3343 73.6826 55.2088 73.7027 55.146C73.7229 55.0821 73.733 55.0283 73.733 54.9824C73.733 54.9319 73.7184 54.886 73.6893 54.8467C73.6602 54.8075 73.6187 54.7772 73.5627 54.7559C73.4854 54.7268 73.3835 54.7122 73.2558 54.7122V54.6237H74.4509ZM76.5229 57.9941V58.0826H74.62V57.9941H74.7399C74.8463 57.9941 74.9314 57.9761 74.9963 57.9403C75.0423 57.9156 75.0781 57.8753 75.1039 57.817C75.1229 57.7755 75.133 57.6679 75.133 57.493V55.2132C75.133 55.035 75.1229 54.9241 75.1039 54.8792C75.0826 54.8355 75.0434 54.7963 74.984 54.7627C74.9235 54.729 74.8429 54.7122 74.7399 54.7122H74.62V54.6237H76.5229V54.7122H76.4031C76.2978 54.7122 76.2138 54.7302 76.1489 54.766C76.1029 54.7907 76.066 54.831 76.0391 54.8893C76.0201 54.9308 76.01 55.0384 76.01 55.2132V57.493C76.01 57.6716 76.0201 57.783 76.0402 57.8271C76.0615 57.8719 76.1007 57.9111 76.1612 57.9436C76.2205 57.9772 76.3012 57.9941 76.4031 57.9941H76.5229ZM80.3355 54.5452V55.7456H80.2314C80.1518 55.4307 80.0062 55.1886 79.7901 55.0216C79.575 54.8535 79.332 54.7694 79.0598 54.7694C78.8324 54.7694 78.6241 54.831 78.4337 54.9555C78.2441 55.0802 78.1052 55.2431 78.0171 55.4441C77.9039 55.7008 77.8479 55.9878 77.8479 56.3016C77.8479 56.6121 77.8894 56.8945 77.9711 57.1489C78.054 57.4034 78.1828 57.5962 78.3576 57.7251C78.5334 57.8562 78.7619 57.9212 79.0408 57.9212C79.2715 57.9212 79.4809 57.873 79.6725 57.7789C79.8629 57.6825 80.0634 57.5199 80.275 57.2868V57.5838C80.0712 57.7867 79.8573 57.9335 79.6366 58.0243C79.4149 58.1162 79.1561 58.1611 78.8604 58.1611C78.4699 58.1611 78.1242 58.0871 77.8233 57.9391C77.5198 57.7912 77.2868 57.5782 77.1233 57.3025C76.9586 57.0245 76.8769 56.7297 76.8769 56.417C76.8769 56.0875 76.9676 55.7737 77.1502 55.4789C77.3316 55.183 77.5769 54.9532 77.8871 54.7896C78.1963 54.6271 78.5244 54.5452 78.8728 54.5452C79.1292 54.5452 79.4003 54.599 79.6848 54.7033C79.8505 54.7649 79.9547 54.7963 79.9995 54.7963C80.0578 54.7963 80.107 54.7761 80.1496 54.7358C80.191 54.6954 80.2179 54.6327 80.2314 54.5452H80.3355ZM82.1399 54.8221V56.231H82.2127C82.4457 56.231 82.6137 56.1615 82.7189 56.0247C82.8231 55.8869 82.8892 55.6851 82.9183 55.4172H83.0236V57.2274H82.9183C82.897 57.0301 82.8511 56.8676 82.7817 56.7432C82.7122 56.6165 82.6327 56.5325 82.5397 56.4888C82.4479 56.4454 82.3146 56.4238 82.1399 56.4238V57.3955C82.1399 57.5861 82.1488 57.7026 82.1656 57.7452C82.1824 57.7878 82.2149 57.8226 82.262 57.8495C82.309 57.8764 82.384 57.8898 82.4882 57.8898H82.7066C83.0482 57.8898 83.3215 57.8147 83.5276 57.6668C83.7337 57.5177 83.8815 57.2913 83.9711 56.9842H84.0708L83.9062 58.0826H80.7499V57.9941H80.8709C80.9762 57.9941 81.0613 57.9761 81.1263 57.9403C81.1733 57.9156 81.2091 57.8753 81.2338 57.817C81.2528 57.7755 81.2629 57.6679 81.2629 57.493V55.2132C81.2629 55.0563 81.2584 54.9588 81.2495 54.923C81.2315 54.8632 81.1983 54.8172 81.1498 54.7851C81.0815 54.7369 80.9885 54.7122 80.8709 54.7122H80.7499V54.6237H83.8065V55.6459H83.7012C83.6497 55.3959 83.5769 55.2166 83.4828 55.1079C83.3887 54.9992 83.2566 54.9196 83.0852 54.868C82.9844 54.8378 82.7973 54.8221 82.5207 54.8221H82.1399ZM86.9123 54.5452L86.9403 55.6986H86.8294C86.7779 55.4094 86.6491 55.1774 86.4453 55.0025C86.2403 54.8266 86.0197 54.738 85.7822 54.738C85.5985 54.738 85.4529 54.7851 85.3465 54.8781C85.239 54.97 85.1852 55.0765 85.1852 55.1964C85.1852 55.2738 85.2054 55.341 85.2424 55.4016C85.2939 55.48 85.3779 55.5596 85.4933 55.638C85.5784 55.693 85.7733 55.7938 86.079 55.9362C86.5069 56.1346 86.7958 56.3218 86.9448 56.4989C87.0927 56.6748 87.1666 56.8766 87.1666 57.1052C87.1666 57.3933 87.0467 57.641 86.8082 57.8495C86.5707 58.0568 86.2683 58.1611 85.9009 58.1611C85.7867 58.1611 85.6769 58.1499 85.575 58.1286C85.472 58.1069 85.3432 58.065 85.1886 58.003C85.1024 57.9694 85.0307 57.9526 84.9747 57.9526C84.9288 57.9526 84.8795 57.9694 84.8268 58.0041C84.7742 58.0389 84.7327 58.0904 84.7003 58.1611H84.6062V56.8564H84.7003C84.7798 57.2229 84.9321 57.5031 85.1572 57.6948C85.3835 57.8876 85.6265 57.984 85.8875 57.984C86.0891 57.984 86.2493 57.9313 86.3691 57.8282C86.489 57.7251 86.5483 57.6051 86.5483 57.4661C86.5483 57.3854 86.5259 57.307 86.48 57.2296C86.4341 57.1534 86.3646 57.0817 86.2705 57.0122C86.1772 56.9435 86.0118 56.8538 85.7744 56.7432C85.4417 56.5885 85.202 56.4574 85.0564 56.3487C84.9131 56.2399 84.8011 56.1178 84.7227 55.9833C84.6454 55.8488 84.6062 55.7008 84.6062 55.5405C84.6062 55.2648 84.7126 55.0294 84.9276 54.8355C85.1404 54.6416 85.4104 54.5452 85.7352 54.5452C85.8539 54.5452 85.9693 54.5587 86.0801 54.5856C86.1653 54.6058 86.2683 54.6439 86.3893 54.6988C86.5102 54.7537 86.5954 54.7806 86.6446 54.7806C86.6906 54.7806 86.7275 54.7672 86.7544 54.7403C86.7813 54.7134 86.807 54.6483 86.8294 54.5452H86.9123Z" fill="#2C2E35"/>
<path fill-rule="evenodd" clip-rule="evenodd" d="M61.2072 42.8761C65.6145 42.9456 66.5397 50.193 61.4268 51.6243C59.6123 52.1332 54.2418 51.9438 52.0555 51.9438L52.06 34.4396C57.0194 34.3779 65.9192 33.1338 64.4083 40.027C64.1932 41.0077 63.3084 42.0916 62.3161 42.4827L61.2072 42.8761ZM59.8632 39.3769C59.7601 37.6575 58.4441 37.6317 56.6879 37.6328L56.6857 41.456L56.9276 41.4549C58.6592 41.4549 59.9774 41.3025 59.8632 39.3769ZM60.1578 46.6164C60.1242 44.6684 58.7028 44.5316 56.6857 44.5283V48.6967C58.714 48.6978 60.1936 48.6754 60.1578 46.6164ZM49.2039 42.4715C49.1893 45.6603 49.009 46.9583 47.5362 49.1293C44.7876 53.1789 36.9284 53.9781 33.9088 47.5456C33.2928 46.2308 33.3611 45.5718 33.1875 44.0261C31.7718 31.4436 49.2565 30.9863 49.2039 42.4715ZM39.0732 47.744C39.6064 48.6003 40.9314 49.2896 42.1768 48.6418C45.0105 47.1656 44.4102 40.3027 43.1972 38.6147C41.9483 36.874 39.2088 37.0029 38.3631 40.3229C38.1212 41.2745 37.9834 43.3547 38.1201 44.3713C38.2982 45.6962 38.4964 46.8181 39.0732 47.744ZM16.8687 38.6046C15.3835 37.8234 13.4985 37.4457 11.3749 37.792C5.07365 38.8198 6.62601 50.471 13.1535 48.3257L13.1558 45.147L10.4195 45.1436L10.4184 41.8102L17.609 41.8013V51.2231C14.7787 52.5546 10.1171 52.6633 7.26107 51.2567C-2.09229 46.4774 3.0464 30.2779 16.9896 34.8352L16.8687 38.6046ZM82.9179 51.9426H78.0883C77.656 50.6828 77.3356 49.3994 76.9403 48.1497L71.6291 48.1463C71.376 48.9825 70.6558 51.0751 70.378 51.9426L65.7848 51.9325L71.8901 34.4463L77.0119 34.4452L82.9179 51.9426ZM72.496 44.9486H76.0095L74.3844 38.0812L72.496 44.9486ZM48.2743 54.6237V54.7122C48.1421 54.7335 48.0234 54.7997 47.9192 54.9151C47.8442 55.0003 47.7322 55.2009 47.5821 55.5181L46.3299 58.1611H46.2403L44.9937 55.4094C44.8425 55.0754 44.7417 54.8804 44.6913 54.8232C44.6398 54.7649 44.5434 54.7279 44.4012 54.7122V54.6237H46.1451V54.7122H46.0857C45.9278 54.7122 45.8192 54.7313 45.762 54.7694C45.7206 54.7952 45.7004 54.8333 45.7004 54.8837C45.7004 54.9151 45.7072 54.951 45.7217 54.9936C45.7367 55.0354 45.7856 55.1486 45.8684 55.3332L46.6469 57.0514L47.3648 55.5215C47.4522 55.3343 47.507 55.2088 47.5261 55.1449C47.5462 55.0821 47.5563 55.0283 47.5563 54.9824C47.5563 54.9319 47.5418 54.886 47.5126 54.8467C47.4835 54.8075 47.4421 54.7772 47.3861 54.7559C47.3088 54.7268 47.2069 54.7122 47.0792 54.7122V54.6237H48.2743ZM50.3474 57.9941V58.0826H48.4434V57.9941H48.5643C48.6696 57.9941 48.7547 57.9761 48.8197 57.9403C48.8668 57.9156 48.9026 57.8752 48.9272 57.817C48.9463 57.7755 48.9564 57.6679 48.9564 57.493V55.2132C48.9564 55.035 48.9463 54.9241 48.9272 54.8792C48.9071 54.8355 48.8679 54.7963 48.8074 54.7627C48.748 54.729 48.6674 54.7122 48.5643 54.7122H48.4434V54.6237H50.3474V54.7122H50.2265C50.1212 54.7122 50.0372 54.7302 49.9722 54.766C49.9263 54.7907 49.8893 54.831 49.8636 54.8893C49.8434 54.9308 49.8333 55.0384 49.8333 55.2132V57.493C49.8333 57.6716 49.8434 57.783 49.8636 57.8271C49.8849 57.8719 49.9252 57.9111 49.9845 57.9436C50.0439 57.9772 50.1257 57.9941 50.2265 57.9941H50.3474ZM53.0736 54.5452L53.1016 55.6986H52.9907C52.9392 55.4094 52.8104 55.1774 52.6065 55.0014C52.4016 54.8266 52.1809 54.738 51.9435 54.738C51.7598 54.738 51.6142 54.7851 51.5078 54.8781C51.4003 54.97 51.3465 55.0765 51.3465 55.1964C51.3465 55.2738 51.3667 55.341 51.4036 55.4016C51.4551 55.48 51.5391 55.5596 51.6545 55.638C51.7396 55.693 51.9345 55.7927 52.2403 55.9362C52.6681 56.1346 52.9571 56.3218 53.1061 56.4989C53.2539 56.6748 53.3278 56.8766 53.3278 57.1041C53.3278 57.3933 53.208 57.641 52.9694 57.8495C52.732 58.0568 52.4296 58.1611 52.0622 58.1611C51.948 58.1611 51.8382 58.1499 51.7363 58.1286C51.6332 58.1069 51.5044 58.065 51.3499 58.003C51.2636 57.9694 51.1919 57.9526 51.1359 57.9526C51.09 57.9526 51.0407 57.9694 50.9881 58.0041C50.9354 58.0389 50.894 58.0904 50.8615 58.1611H50.7674V56.8564H50.8615C50.941 57.2229 51.0934 57.5031 51.3185 57.6948C51.5447 57.8876 51.7878 57.984 52.0488 57.984C52.2504 57.984 52.4105 57.9313 52.5304 57.8282C52.6502 57.7251 52.7096 57.6051 52.7096 57.4661C52.7096 57.3854 52.6872 57.3059 52.6413 57.2296C52.5953 57.1534 52.5259 57.0817 52.4318 57.0111C52.3385 56.9431 52.1731 56.8538 51.9356 56.7432C51.603 56.5885 51.3633 56.4563 51.2177 56.3475C51.0743 56.2399 50.9623 56.1178 50.8839 55.9833C50.8066 55.8488 50.7674 55.7008 50.7674 55.5405C50.7674 55.2648 50.8738 55.0294 51.0889 54.8355C51.3017 54.6416 51.5716 54.5452 51.8964 54.5452C52.0152 54.5452 52.1305 54.5587 52.2414 54.5856C52.3265 54.6058 52.4296 54.6439 52.5505 54.6988C52.6715 54.7537 52.7566 54.7806 52.8059 54.7806C52.8518 54.7806 52.8888 54.7672 52.9157 54.7403C52.9425 54.7134 52.9683 54.6483 52.9907 54.5452H53.0736ZM55.8389 57.0963H54.5599L54.4008 57.4348C54.3504 57.5468 54.3258 57.641 54.3258 57.715C54.3258 57.8136 54.3672 57.8853 54.449 57.9324C54.4971 57.9593 54.617 57.9806 54.8074 57.9941V58.0826H53.5922V57.9941C53.7232 57.975 53.8318 57.9234 53.9158 57.8383C53.9998 57.7531 54.1051 57.5782 54.2283 57.3115L55.5343 54.5553H55.5858L56.903 57.3877C57.0284 57.6589 57.1314 57.8304 57.2132 57.901C57.2748 57.9548 57.3599 57.9851 57.4719 57.9941V58.0826H55.7045V57.9941H55.7773C55.9196 57.9941 56.0193 57.975 56.0764 57.9369C56.1156 57.91 56.1346 57.8696 56.1346 57.8181C56.1346 57.7878 56.1301 57.7553 56.1201 57.7217C56.1156 57.7071 56.0887 57.6421 56.0383 57.5278L55.8389 57.0963ZM55.7527 56.9091L55.2072 55.73L54.6495 56.9091H55.7527ZM62.5815 54.5452L62.6084 55.6986H62.4986C62.446 55.4094 62.3183 55.1774 62.1144 55.0014C61.9095 54.8266 61.6877 54.738 61.4514 54.738C61.2666 54.738 61.1221 54.784 61.0157 54.877C60.9071 54.97 60.8544 55.0765 60.8544 55.1964C60.8544 55.2727 60.8735 55.341 60.9115 55.4004C60.9631 55.48 61.0459 55.5596 61.1624 55.6369C61.2464 55.693 61.4413 55.7927 61.7471 55.9362C62.1761 56.1335 62.4639 56.3218 62.6129 56.4989C62.7618 56.6748 62.8346 56.8766 62.8346 57.1041C62.8346 57.3933 62.7159 57.641 62.4773 57.8483C62.2388 58.0568 61.9364 58.1611 61.5701 58.1611C61.4548 58.1611 61.345 58.1499 61.2431 58.1274C61.14 58.1058 61.0112 58.0643 60.8567 58.003C60.7704 57.9683 60.6999 57.9526 60.6439 57.9526C60.5968 57.9526 60.5475 57.9694 60.496 58.0041C60.4434 58.0389 60.4008 58.0904 60.3683 58.1611H60.2754V56.8564H60.3683C60.4478 57.2229 60.6002 57.5031 60.8253 57.6948C61.0515 57.8876 61.2946 57.984 61.5556 57.984C61.7572 57.984 61.9184 57.9313 62.0372 57.8282C62.157 57.7239 62.2175 57.604 62.2175 57.4661C62.2175 57.3854 62.194 57.3059 62.148 57.2296C62.1021 57.1534 62.0327 57.0806 61.9397 57.0111C61.8456 56.9423 61.6799 56.853 61.4424 56.7432C61.1098 56.5885 60.8712 56.4563 60.7256 56.3475C60.5811 56.2388 60.4702 56.1178 60.3918 55.9833C60.3134 55.8488 60.2754 55.7008 60.2754 55.5405C60.2754 55.2648 60.3818 55.0294 60.5957 54.8355C60.8096 54.6416 61.0784 54.5452 61.4044 54.5452C61.5231 54.5452 61.6373 54.5587 61.7493 54.5856C61.8333 54.6058 61.9364 54.6439 62.0584 54.6988C62.1794 54.7526 62.2634 54.7795 62.3127 54.7795C62.3597 54.7795 62.3967 54.7672 62.4225 54.7403C62.4493 54.7134 62.4751 54.6483 62.4986 54.5452H62.5815ZM64.5572 54.8221V56.231H64.63C64.863 56.231 65.031 56.1615 65.1363 56.0247C65.2393 55.8869 65.3065 55.684 65.3357 55.4161H65.4398V57.2274H65.3357C65.3144 57.0301 65.2685 56.8676 65.199 56.7432C65.1296 56.6165 65.0489 56.5325 64.9571 56.4888C64.8652 56.4454 64.732 56.4238 64.5572 56.4238V57.3955C64.5572 57.5861 64.5651 57.7015 64.583 57.7441C64.5998 57.7867 64.6323 57.8214 64.6782 57.8483C64.7252 57.8752 64.8014 57.8898 64.9044 57.8898H65.124C65.4645 57.8898 65.7389 57.8147 65.9449 57.6657C66.151 57.5177 66.2989 57.2902 66.3885 56.9842H66.4882L66.3235 58.0826H63.1673V57.9941H63.2871C63.3935 57.9941 63.4786 57.9761 63.5436 57.9403C63.5895 57.9156 63.6254 57.8752 63.6511 57.817C63.6702 57.7755 63.6803 57.6679 63.6803 57.493V55.2132C63.6803 55.0552 63.6758 54.9588 63.6668 54.9229C63.6489 54.8624 63.6157 54.8161 63.5671 54.784C63.4988 54.7369 63.4058 54.7122 63.2871 54.7122H63.1673V54.6237H66.2238V55.6459H66.1185C66.067 55.3959 65.9942 55.2166 65.9001 55.1079C65.8061 54.9992 65.6739 54.9196 65.5014 54.868C65.4017 54.8378 65.2136 54.8221 64.938 54.8221H64.5572ZM68.204 56.5067V57.483C68.204 57.669 68.2164 57.7867 68.241 57.8349C68.2645 57.8831 68.3082 57.9223 68.3687 57.9503C68.4303 57.9795 68.5445 57.9941 68.7114 57.9941V58.0826H66.841V57.9941C67.0101 57.9941 67.1255 57.9795 67.1848 57.9492C67.2464 57.9201 67.2879 57.8809 67.3125 57.8338C67.3371 57.7867 67.3495 57.669 67.3495 57.483V55.2233C67.3495 55.0362 67.3371 54.9196 67.3125 54.8714C67.2879 54.8221 67.2453 54.784 67.1848 54.7559C67.1232 54.7268 67.009 54.7122 66.841 54.7122V54.6237H68.5412C68.9836 54.6237 69.3062 54.6517 69.5111 54.71C69.7157 54.7675 69.883 54.8748 70.0129 55.0317C70.1428 55.1875 70.2066 55.369 70.2066 55.5786C70.2066 55.8342 70.1092 56.0449 69.9154 56.2119C69.7915 56.318 69.6175 56.3972 69.3935 56.4495L70.2705 57.6208C70.3859 57.771 70.4687 57.8652 70.518 57.9033C70.5908 57.9548 70.6782 57.984 70.7756 57.9885V58.0826H69.6242L68.4437 56.5067H68.204ZM68.204 54.8165V56.324H68.3575C68.6084 56.324 68.7954 56.3027 68.9197 56.2601C69.0441 56.2164 69.1415 56.1379 69.2121 56.0259C69.2826 55.9138 69.3185 55.7669 69.3185 55.5865C69.3185 55.3235 69.2535 55.1296 69.1236 55.0048C68.9925 54.8792 68.7831 54.8165 68.493 54.8165H68.204ZM74.4527 54.6237V54.7122C74.3205 54.7335 74.2018 54.7997 74.0976 54.9151C74.0226 55.0003 73.9106 55.2009 73.7605 55.517L72.5072 58.1611H72.4187L71.1721 55.4083C71.0209 55.0754 70.9201 54.8804 70.8686 54.8221C70.8171 54.7638 70.7207 54.7279 70.5796 54.7122V54.6237H72.3224V54.7122H72.2641C72.1062 54.7122 71.9976 54.7313 71.9405 54.7694C71.899 54.7952 71.8789 54.8333 71.8789 54.8837C71.8789 54.9151 71.8856 54.951 71.9001 54.9936C71.9151 55.0354 71.9636 55.1486 72.0457 55.3332L72.8253 57.0514L73.5432 55.5215C73.6306 55.3343 73.6843 55.2088 73.7045 55.1449C73.7247 55.0821 73.7347 55.0283 73.7347 54.9824C73.7347 54.9308 73.7202 54.886 73.6911 54.8456C73.6619 54.8064 73.6205 54.7761 73.5645 54.7559C73.4872 54.7268 73.3853 54.7122 73.2576 54.7122V54.6237H74.4527ZM76.5247 57.9941V58.0826H74.6218V57.9941H74.7417C74.8481 57.9941 74.9332 57.9761 74.997 57.9403C75.0441 57.9156 75.0799 57.8752 75.1057 57.817C75.1247 57.7755 75.1348 57.6679 75.1348 57.493V55.2132C75.1348 55.035 75.1247 54.923 75.1057 54.8792C75.0844 54.8344 75.0452 54.7952 74.9858 54.7627C74.9253 54.729 74.8447 54.7122 74.7417 54.7122H74.6218V54.6237H76.5247V54.7122H76.4049C76.2996 54.7122 76.2145 54.7302 76.1506 54.766C76.1047 54.7907 76.0678 54.831 76.0409 54.8893C76.0218 54.9308 76.0118 55.0384 76.0118 55.2132V57.493C76.0118 57.6716 76.0218 57.783 76.042 57.8271C76.0633 57.8719 76.1025 57.9111 76.163 57.9436C76.2223 57.9772 76.303 57.9941 76.4049 57.9941H76.5247ZM80.3373 54.5452V55.7456H80.2331C80.1536 55.4307 80.008 55.1886 79.7919 55.0205C79.5768 54.8535 79.3338 54.7694 79.0616 54.7694C78.8342 54.7694 78.6259 54.831 78.4355 54.9555C78.2458 55.0802 78.107 55.2428 78.0189 55.443C77.9057 55.7008 77.8497 55.9866 77.8497 56.3016C77.8497 56.6109 77.8912 56.8945 77.9729 57.1489C78.0558 57.4023 78.1835 57.5962 78.3593 57.7251C78.5352 57.8562 78.7637 57.9212 79.0426 57.9212C79.2733 57.9212 79.4827 57.873 79.6743 57.7789C79.8635 57.6825 80.0651 57.5188 80.2768 57.2857V57.5838C80.073 57.7867 79.8591 57.9335 79.6384 58.0243C79.4166 58.1162 79.1579 58.1611 78.8622 58.1611C78.4717 58.1611 78.1256 58.0871 77.824 57.9391C77.5216 57.7912 77.2886 57.5782 77.1251 57.3014C76.9604 57.0245 76.8787 56.7297 76.8787 56.417C76.8787 56.0875 76.9694 55.7737 77.1519 55.4778C77.3334 55.183 77.5787 54.9532 77.8889 54.7896C78.1981 54.627 78.5262 54.5452 78.8746 54.5452C79.131 54.5452 79.4021 54.5979 79.6866 54.7033C79.8523 54.7649 79.9565 54.7952 80.0013 54.7952C80.0595 54.7952 80.1088 54.7761 80.1514 54.7358C80.1928 54.6954 80.2197 54.6326 80.2331 54.5452H80.3373ZM82.1417 54.8221V56.231H82.2145C82.4474 56.231 82.6154 56.1615 82.7207 56.0247C82.8238 55.8869 82.891 55.684 82.9201 55.4161H83.0243V57.2274H82.9201C82.8988 57.0301 82.8529 56.8676 82.7835 56.7432C82.714 56.6165 82.6345 56.5325 82.5415 56.4888C82.4497 56.4454 82.3164 56.4238 82.1417 56.4238V57.3955C82.1417 57.5861 82.1506 57.7015 82.1674 57.7441C82.1842 57.7867 82.2167 57.8214 82.2638 57.8483C82.3108 57.8752 82.3858 57.8898 82.49 57.8898H82.7084C83.05 57.8898 83.3233 57.8147 83.5294 57.6657C83.7355 57.5177 83.8833 57.2902 83.9729 56.9842H84.0726L83.908 58.0826H80.7517V57.9941H80.8727C80.978 57.9941 81.0631 57.9761 81.1281 57.9403C81.1751 57.9156 81.2109 57.8752 81.2356 57.817C81.2546 57.7755 81.2647 57.6679 81.2647 57.493V55.2132C81.2647 55.0552 81.2602 54.9588 81.2513 54.9229C81.2333 54.8624 81.2001 54.8161 81.1516 54.784C81.0833 54.7369 80.9903 54.7122 80.8727 54.7122H80.7517V54.6237H83.8083V55.6459H83.703C83.6515 55.3959 83.5787 55.2166 83.4846 55.1079C83.3905 54.9992 83.2583 54.9196 83.0859 54.868C82.9862 54.8378 82.7991 54.8221 82.5225 54.8221H82.1417ZM86.9141 54.5452L86.9421 55.6986H86.8312C86.7797 55.4094 86.6509 55.1774 86.4471 55.0014C86.2421 54.8266 86.0215 54.738 85.784 54.738C85.6003 54.738 85.4547 54.784 85.3483 54.877C85.2408 54.97 85.187 55.0765 85.187 55.1964C85.187 55.2727 85.2072 55.341 85.2442 55.4004C85.2957 55.48 85.3797 55.5596 85.495 55.6369C85.5802 55.693 85.775 55.7927 86.0808 55.9362C86.5087 56.1335 86.7976 56.3218 86.9466 56.4989C87.0944 56.6748 87.1684 56.8766 87.1684 57.1041C87.1684 57.3933 87.0485 57.641 86.81 57.8483C86.5725 58.0568 86.2701 58.1611 85.9027 58.1611C85.7874 58.1611 85.6787 58.1499 85.5768 58.1274C85.4738 58.1058 85.345 58.0643 85.1904 58.003C85.1041 57.9683 85.0325 57.9526 84.9765 57.9526C84.9294 57.9526 84.8813 57.9694 84.8286 58.0041C84.776 58.0389 84.7345 58.0904 84.7021 58.1611H84.608V56.8564H84.7021C84.7805 57.2229 84.9339 57.5031 85.159 57.6948C85.3853 57.8876 85.6283 57.984 85.8893 57.984C86.0909 57.984 86.2511 57.9313 86.3709 57.8282C86.4907 57.7239 86.5501 57.604 86.5501 57.4661C86.5501 57.3854 86.5277 57.3059 86.4818 57.2296C86.4347 57.1534 86.3664 57.0806 86.2723 57.0111C86.179 56.9423 86.0136 56.853 85.7762 56.7432C85.4435 56.5885 85.2038 56.4563 85.0582 56.3475C84.9149 56.2388 84.8029 56.1178 84.7245 55.9833C84.6472 55.8488 84.608 55.7008 84.608 55.5405C84.608 55.2648 84.7144 55.0294 84.9294 54.8355C85.1422 54.6416 85.4122 54.5452 85.737 54.5452C85.8557 54.5452 85.9711 54.5587 86.0819 54.5856C86.1671 54.6058 86.2701 54.6439 86.3911 54.6988C86.512 54.7526 86.5971 54.7795 86.6453 54.7795C86.6924 54.7795 86.7293 54.7672 86.7562 54.7403C86.7831 54.7134 86.8088 54.6483 86.8312 54.5452H86.9141ZM84.7625 34.314H89.5966L89.5977 48.0668L95.4722 48.1094V51.7756H84.7625V34.314ZM20.931 34.314H25.7651L25.7662 48.0668L31.6407 48.1105V51.7767H20.931V34.314Z" fill="#0C0C0D"/>
<mask id="mask0_241_14373" style="mask-type:luminance" maskUnits="userSpaceOnUse" x="0" y="0" width="127" height="70">
<path d="M0 0.0521545H127V69.9478H0V0.0521545Z" fill="white"/>
</mask>
<g mask="url(#mask0_241_14373)">
<path fill-rule="evenodd" clip-rule="evenodd" d="M65.1588 27.5049L66.5398 27.6069C64.0455 29.5505 60.9016 30.7128 57.4944 30.7128C51.4138 30.7128 46.181 27.0162 43.9443 21.7595L44.9199 21.7774C45.0812 22.1282 45.257 22.4679 45.4474 22.8008C45.8663 23.2132 46.3087 23.5988 46.7735 23.9541C46.6178 23.3724 46.498 22.664 46.5137 21.8716L46.9326 21.894L47.4153 22.1126C47.4153 22.1126 47.3559 23.2457 47.7502 24.6468C49.5949 25.8427 51.7017 26.6408 53.9081 27.0308C53.7939 25.9156 53.7939 24.8978 53.7939 24.8978L55.0125 25.2845C55.0057 26.0209 55.0349 26.6542 55.0808 27.1989C57.0755 27.4175 59.1218 27.3133 61.1009 26.8728L62.0574 27.0925C59.6438 27.6551 57.3141 27.8188 55.1211 27.5935C55.2645 28.8667 55.5019 29.5325 55.568 29.6939C56.1963 29.7814 56.8403 29.8284 57.4944 29.8284C58.7399 29.8284 59.9473 29.6603 61.0964 29.3521C61.5747 28.6616 61.885 27.9051 62.0574 27.0925L63.0139 27.2471C63.0139 27.2471 62.8022 28.3276 62.1986 29.0035C63.2491 28.6235 64.2415 28.118 65.1588 27.5049ZM47.2854 25.3327C47.1812 25.1209 47.039 24.797 46.9012 24.389C46.5618 24.1267 46.2292 23.8487 45.9055 23.5573C46.3177 24.1861 46.7802 24.779 47.2854 25.3327ZM54.5062 29.5034C54.2307 29.0382 54.0604 28.2402 53.9574 27.4343C51.7554 27.06 49.7102 26.2742 47.8868 25.0861C48.0526 25.5692 48.2732 26.0714 48.5701 26.5634C50.2523 27.9835 52.2796 29.0113 54.5062 29.5034Z" fill="#2C2E35"/>
<path d="M75.5526 17.7401L76.5908 15.7137L72.4871 12.9216C73.2565 15.1286 73.737 17.6639 74.0181 20.4223L74.7618 19.2096C75.7799 23.2928 72.4053 25.2621 67.6709 25.6701H67.382L67.3573 25.6947C62.3721 26.0478 55.9868 24.7286 51.6187 22.3569L50.2276 22.4566C54.0559 24.7588 59.7759 26.2966 64.9538 26.6699C64.975 26.6721 64.9952 26.6744 65.0176 26.6744C65.0198 26.6744 65.0221 26.6755 65.0232 26.6744C65.2931 26.6934 65.5597 26.7091 65.8263 26.7226H65.8543C66.7055 26.7416 67.7852 26.7226 67.7852 26.7226L67.7829 26.7551C74.7372 26.643 79.6676 24.0225 75.5526 17.7401ZM48.6898 21.1251L43.289 14.2465L42.8354 16.8917C36.0111 11.7806 35.637 5.79309 45.7811 5.10041L47.2551 4.00423C34.937 2.98538 31.1894 10.1263 42.7223 18.2143L42.3068 20.596L48.6898 21.1251Z" fill="#317CFC"/>
<path fill-rule="evenodd" clip-rule="evenodd" d="M72.2073 16.0555C72.2073 19.1703 71.2262 22.0599 69.5562 24.4372H68.5C68.4687 24.4809 68.4026 24.4461 68.4228 24.3957C68.4911 24.2231 68.5549 24.0471 68.612 23.87C68.3432 24.1245 68.0677 24.3755 67.874 24.528H67.1952C67.1952 24.528 68.0744 23.9653 68.7711 23.3298C69.106 22.0487 69.1631 20.6655 68.9761 19.2522C67.5715 20.6151 65.6171 21.5454 63.3054 22.1372C63.3625 22.8781 63.3994 23.6234 63.4129 24.371L62.2402 24.2657C62.1988 23.6391 62.1472 23.0238 62.0924 22.4096C60.3384 22.7548 58.4164 22.933 56.3993 22.9745L53.4961 21.9825C53.6115 22.0038 53.728 22.024 53.8422 22.0419C54.0013 20.2284 54.2085 18.4665 54.4661 16.7617C52.4825 16.4086 50.7129 15.7249 49.3084 14.8024C48.7596 15.9961 48.2712 17.2582 47.8456 18.592L47.1422 17.6807C47.5634 16.477 48.0483 15.3472 48.5882 14.2846C47.327 13.287 46.459 12.0765 46.1264 10.7461C45.3547 11.6977 44.7196 12.758 44.2212 13.9315L43.9199 13.6009C44.5258 12.2794 45.2315 11.1541 46.02 10.1969C45.992 9.97945 45.974 9.76088 45.974 9.53784C45.974 9.07044 46.0424 8.61314 46.1678 8.17041C45.0612 9.74519 44.275 11.5576 43.9065 13.5191C43.6578 13.2389 43.3756 12.9217 43.1729 12.6941C44.7028 6.22687 50.5426 1.39828 57.4946 1.39828C65.6059 1.39828 72.2073 7.97426 72.2073 16.0555ZM69.5708 17.7368C70.543 16.5678 71.1075 15.2014 71.1075 13.6715C71.0616 13.4103 71.0078 13.1548 70.9484 12.9015C70.4198 11.7055 69.7802 10.671 69.0399 9.77994C68.9805 10.996 68.4754 12.1404 67.6231 13.1436C67.688 13.2545 67.7552 13.3599 67.8191 13.4731C68.7073 15.0367 69.2695 16.4501 69.5708 17.7368ZM68.8529 18.5001C68.546 16.9051 67.94 15.2833 67.0765 13.7264C65.915 14.8405 64.3011 15.7406 62.4105 16.3178C62.8002 17.9968 63.0847 19.7308 63.2494 21.4905C65.4782 20.8393 67.4439 19.8227 68.8529 18.5001ZM66.7214 13.1133C65.831 11.6394 64.7088 10.235 63.395 8.97966C62.6938 9.64544 61.7093 10.1879 60.5501 10.5365C61.2154 12.1203 61.7799 13.815 62.229 15.5792C64.0513 15.0322 65.6059 14.1759 66.7214 13.1133ZM62.0375 21.8032C61.8639 19.9998 61.6343 18.2613 61.3453 16.6003C60.1446 16.876 58.8544 17.0262 57.5103 17.0262C56.8294 17.0262 56.1629 16.9858 55.5133 16.9118C55.3498 18.6301 55.2199 20.3809 55.1348 22.1697L53.9352 22.0576C56.6221 22.4936 59.4592 22.3838 62.0375 21.8032ZM54.5882 15.9894C54.8783 14.1961 55.2288 12.4711 55.6477 10.8212C54.4045 10.6116 53.2957 10.1969 52.4209 9.63871C51.3647 10.9848 50.4396 12.4778 49.6377 14.112C50.9817 14.993 52.6808 15.6498 54.5882 15.9894ZM51.9796 9.33048C51.2091 8.73531 50.6793 8.01349 50.49 7.21993C48.9668 8.02694 47.6709 9.01889 46.6024 10.1946C46.8969 11.4769 47.7258 12.6482 48.941 13.6099C49.8135 12.0171 50.8294 10.5925 51.9796 9.33048ZM46.5094 9.63647C47.6642 8.38897 48.9802 7.45531 50.4194 6.76711C50.4127 6.69874 50.4105 6.63037 50.4105 6.55976C50.4105 5.85251 50.6815 5.18112 51.1575 4.5882C50.3422 4.73839 49.5649 4.98722 48.8212 5.34028C48.1189 5.90743 47.4726 6.53846 46.8936 7.2289C46.627 7.83976 46.4814 8.48312 46.4814 9.14778C46.4814 9.31255 46.4915 9.47619 46.5094 9.63647ZM49.7541 4.65209C50.2962 4.43576 50.891 4.27661 51.5305 4.18021C52.132 3.59513 52.9473 3.10645 53.9083 2.75562C52.4075 3.15688 51.0086 3.80473 49.7541 4.65209ZM59.9453 10.6957C59.1792 10.8739 58.3504 10.9714 57.4834 10.9714C57.0713 10.9714 56.6681 10.9467 56.2761 10.9053C56.0005 12.6056 55.7732 14.3507 55.5906 16.1351C56.2257 16.208 56.8775 16.2472 57.545 16.2472C58.8308 16.2472 60.0629 16.106 61.2087 15.8482C60.8671 14.0302 60.4504 12.3108 59.9453 10.6957ZM57.2236 4.66554L57.1956 4.7227C56.0577 3.34631 54.969 2.87443 54.5154 2.72648C53.5409 3.05041 52.7188 3.53125 52.1252 4.11184C53.5454 3.99527 55.1426 4.18694 56.8137 4.7821L56.9111 4.84151C55.0922 4.44249 53.3729 4.29902 51.7814 4.49517C51.3636 5.02757 51.1273 5.62498 51.1273 6.25825C51.1273 6.32214 51.1295 6.38603 51.1363 6.44992C52.8835 5.72809 54.7965 5.32908 56.8137 5.13517C54.7047 5.5185 52.8331 6.09685 51.2001 6.86687C51.3737 7.573 51.843 8.2186 52.5251 8.75213C53.8534 7.40263 55.352 6.25601 57.0142 5.30554C55.482 6.35689 54.1222 7.6055 52.9171 9.03234C53.7034 9.54232 54.7047 9.92116 55.8303 10.1139C56.2693 8.48088 56.7767 6.92627 57.358 5.45237C56.9884 6.98792 56.6725 8.57167 56.397 10.1924C56.7588 10.2328 57.1295 10.2541 57.5103 10.2541C58.2888 10.2541 59.0336 10.1666 59.7213 10.0075C59.1657 8.35086 58.5172 6.80971 57.7567 5.40641C58.6875 6.73237 59.5275 8.2343 60.2566 9.86624C61.3061 9.55353 62.1965 9.06372 62.8349 8.46183C61.5884 7.35668 60.1906 6.38155 58.6651 5.60256C58.6147 5.57902 58.6472 5.50168 58.6976 5.52074C60.2062 6.06435 61.7508 6.89489 63.2169 8.04936C63.6492 7.51023 63.8934 6.90162 63.8934 6.25825C63.8934 6.22687 63.8911 6.19661 63.8889 6.16522C62.126 5.48823 60.1514 5.11051 58.0155 4.96144C59.9923 4.92557 61.94 5.14189 63.843 5.75724C63.7063 5.08025 63.3009 4.4537 62.6916 3.92466C60.2018 3.79801 58.123 4.73391 58.002 4.78883C59.4984 3.85853 61.1403 3.63324 62.3041 3.61979C61.4517 3.01118 60.3093 2.56732 59.0112 2.37118C58.3963 2.98876 57.638 4.56802 57.5831 4.66778C57.8452 3.49874 58.2686 2.57181 58.3896 2.31625C58.0939 2.29608 57.7971 2.28375 57.4946 2.28375C57.0567 2.28375 56.6199 2.30505 56.1921 2.3454C55.8392 2.39135 55.4999 2.45524 55.1717 2.53706C56.2257 3.1524 57.2236 4.66554 57.2236 4.66554ZM60.9925 2.73097C61.6567 2.9697 62.2536 3.27121 62.7588 3.62428C63.0959 3.63548 63.3737 3.66126 63.5652 3.68592C62.7498 3.2869 61.8874 2.96522 60.9925 2.73097ZM64.5967 4.2441C64.1275 4.10512 63.6593 4.01657 63.2012 3.96613C63.8822 4.54897 64.3358 5.23829 64.4926 5.98701C66.0382 6.57993 67.4215 7.42281 68.5706 8.55822C68.5224 8.18946 68.4295 7.82855 68.2973 7.47773C67.268 6.19437 66.0158 5.09594 64.5967 4.2441ZM64.5542 6.55976C64.5542 7.27037 64.2831 7.94064 63.8049 8.53692C65.0526 9.61293 66.2298 10.94 67.2591 12.5484C68.0879 11.5733 68.5684 10.4614 68.6031 9.28004C67.4528 8.04487 66.0886 7.1157 64.5497 6.43647C64.552 6.47794 64.5542 6.51829 64.5542 6.55976ZM68.8786 8.25671C68.9469 8.51002 68.994 8.77006 69.0197 9.03234C69.4633 9.52887 69.8642 10.0758 70.2193 10.6755C69.8553 9.82253 69.4039 9.01328 68.8786 8.25671ZM71.3192 16.0555C71.3192 15.5949 71.2945 15.1398 71.2508 14.6926C71.0436 16.162 70.5105 17.3983 69.7119 18.4283C69.9785 20.0345 69.9057 21.3067 69.4521 22.562C69.47 22.5385 69.461 22.553 69.4543 22.5643L69.4722 22.924C70.6449 20.9009 71.3192 18.555 71.3192 16.0555Z" fill="#2C2E35"/>
</g>
</g>
<defs>
<clipPath id="clip0_241_14373">
<rect width="127" height="70" fill="white"/>
</clipPath>
</defs>
</svg>
