<svg width="26" height="26" viewBox="0 0 26 26" fill="none" xmlns="http://www.w3.org/2000/svg">
<g clip-path="url(#clip0_492_90)">
<path fill-rule="evenodd" clip-rule="evenodd" d="M8.62305 24.3705H12.7484V19.4131H8.62305V24.3705ZM9.86416 20.2593H11.5143C11.6765 20.2593 11.8034 20.3933 11.8034 20.5484C11.8034 20.7106 11.6694 20.8376 11.5143 20.8376H9.86416C9.70197 20.8376 9.57504 20.7036 9.57504 20.5484C9.56799 20.3933 9.70197 20.2593 9.86416 20.2593ZM9.86416 21.5991H11.5143C11.6765 21.5991 11.8034 21.7331 11.8034 21.8883C11.8034 22.0505 11.6694 22.1774 11.5143 22.1774H9.86416C9.70197 22.1774 9.57504 22.0434 9.57504 21.8883C9.56799 21.7331 9.70197 21.5991 9.86416 21.5991ZM9.86416 22.939H11.5143C11.6765 22.939 11.8034 23.073 11.8034 23.2281C11.8034 23.3903 11.6694 23.5172 11.5143 23.5172H9.86416C9.70197 23.5172 9.57504 23.3833 9.57504 23.2281C9.56799 23.0659 9.70197 22.939 9.86416 22.939Z" fill="#317CFC"/>
<path fill-rule="evenodd" clip-rule="evenodd" d="M20.0694 16.9308C19.8226 16.5571 19.1033 15.6121 17.8199 14.9563C17.2558 14.6742 16.7128 14.4979 16.205 14.4062L13.3279 19.2015V24.6596C13.3279 24.8218 13.1939 24.9487 13.0388 24.9487H8.33523C8.17304 24.9487 8.04611 24.8147 8.04611 24.6596V19.2015L5.19718 14.4486C4.75291 14.5473 4.27339 14.7095 3.78682 14.9563C2.49634 15.6121 1.78411 16.5571 1.53729 16.9308C1.24112 17.3821 1.02251 17.8546 0.832113 18.4681C0.112829 20.7599 0.0070518 24.314 0 26.0065H3.70925V21.0773C3.70925 20.9151 3.84323 20.7881 3.99837 20.7881C4.16056 20.7881 4.2875 20.9221 4.2875 21.0773V26.0065H17.6648V21.0773C17.6648 20.9151 17.7988 20.7881 17.9539 20.7881C18.1161 20.7881 18.243 20.9221 18.243 21.0773V26.0065H21.5856C21.5785 24.314 21.4798 20.7599 20.7676 18.4681C20.5913 17.8546 20.3727 17.3821 20.0694 16.9308Z" fill="#317CFC"/>
<path fill-rule="evenodd" clip-rule="evenodd" d="M12.8765 18.828L15.5843 14.3148C15.3234 14.2937 15.0837 14.2866 14.8792 14.2937L10.9019 17.8407C10.7891 17.9394 10.6199 17.9394 10.507 17.8337L6.73433 14.2937C6.46636 14.2866 6.15609 14.3007 5.81055 14.343L8.50434 18.835H12.8765V18.828Z" fill="#317CFC"/>
<path fill-rule="evenodd" clip-rule="evenodd" d="M12.3742 13.123C12.1415 13.2288 11.8665 13.3346 11.5421 13.4122C11.3306 13.4615 10.9921 13.5179 10.569 13.5179C10.2728 13.5179 9.94137 13.4897 9.58173 13.4122C9.41248 13.3769 9.09515 13.2923 8.7073 13.116C8.7214 13.2077 8.72846 13.3134 8.72141 13.4404C8.7073 14.0962 8.47459 14.6815 8.31945 14.9918L10.6959 17.2272L12.9102 15.2527C12.6563 14.8014 12.3742 14.1455 12.3601 13.4051C12.3601 13.2993 12.3672 13.2077 12.3742 13.123ZM15.068 5.59171C14.9129 5.28849 14.6308 4.72434 14.0455 3.9839C13.7987 3.67362 13.7 3.56785 13.6295 3.49733C13.566 3.43386 13.3897 3.27167 13.1429 3.09537L13.1288 3.08832C13.1217 3.08127 13.1147 3.08127 13.1076 3.07422C12.9525 3.28577 12.7691 3.45502 12.5505 3.589C12.0358 3.91338 11.5139 3.89928 11.0979 3.88518H11.0697C11.0556 3.88518 9.70866 3.85697 8.27009 3.95569C7.22642 4.02621 6.90909 4.1602 6.67638 4.28713C6.46483 4.40701 6.06287 4.62562 5.87248 5.04872C5.78785 5.23207 5.7667 5.40837 5.74554 5.54235C5.73849 5.60582 5.73144 5.66223 5.71734 5.71159C5.68208 5.83147 5.62566 5.89494 5.5622 5.9302C4.92048 6.50845 4.94869 7.16426 5.02626 7.50275C5.16024 8.10921 5.62566 8.63104 6.1757 8.79323C6.28853 8.82849 6.3661 8.92016 6.38021 9.03299C6.41547 9.29391 6.50009 9.71702 6.61997 10.0555C6.99371 11.1062 7.68479 11.7479 7.96686 11.9806C8.6932 12.573 9.41953 12.7775 9.69455 12.841C10.4914 13.0173 11.1472 12.8974 11.394 12.841C12.064 12.6858 12.5153 12.3755 12.7057 12.2416C12.8467 12.1428 13.2064 11.8749 13.573 11.4447C14.109 10.81 14.4898 9.98499 14.7013 8.98363C14.7295 8.86375 14.8212 8.77913 14.9411 8.75797C15.4629 8.67335 15.9707 7.91176 16.0271 7.13606C16.0482 6.79757 15.9989 6.19817 15.3924 5.98661C15.3289 5.97251 15.2725 5.9443 15.2302 5.89494C15.1879 5.83147 15.1456 5.74685 15.068 5.59171Z" fill="#317CFC"/>
<path fill-rule="evenodd" clip-rule="evenodd" d="M5.402 4.71737C5.68407 4.18143 6.1636 3.91346 6.40336 3.78653C6.763 3.58908 7.18611 3.45509 8.23683 3.38457C9.7036 3.28585 11.0787 3.31406 11.0928 3.31406H11.121C11.4948 3.32111 11.8826 3.33521 12.2493 3.1025C12.4397 2.98262 12.6019 2.81338 12.7359 2.60182C12.7852 2.5172 12.8628 2.46079 12.9615 2.43963C12.9897 2.43258 13.0179 2.43258 13.0391 2.43258C13.1872 2.43258 13.3282 2.5172 13.4693 2.61593L13.4834 2.62298C13.7584 2.81338 13.9558 2.99673 14.0475 3.08135C14.1462 3.18007 14.2661 3.307 14.5129 3.62434C14.9925 4.23079 15.2816 4.73147 15.4649 5.06996C15.5778 4.78083 15.6906 4.43529 15.7117 4.29426C15.7611 3.93462 15.7823 3.77242 15.7399 3.58908C15.6694 3.2788 15.5002 3.06724 15.3803 2.92621C15.2322 2.74991 15.0982 2.64414 14.8303 2.44669C14.6328 2.2986 14.52 2.22808 14.4283 2.17872C14.3155 2.11525 14.2168 2.05178 14.0828 1.91075C13.8571 1.67804 13.7372 1.45238 13.568 1.128C13.4975 0.994014 13.4552 0.895288 13.4199 0.817719C13.3705 0.697838 13.3494 0.655527 13.2859 0.585009C13.2154 0.507439 13.1026 0.401662 12.8346 0.295885C12.348 0.0984347 11.8615 0.0772793 11.4031 0.0913829C10.7614 0.105487 10.296 0.126642 9.60488 0.267678C8.73751 0.443973 7.55985 0.690786 6.5726 1.64278C6.00141 2.19987 5.73344 2.76402 5.66292 2.92621C5.52893 3.24354 5.31738 3.89936 5.40905 4.68916C5.402 4.70326 5.402 4.71031 5.402 4.71737ZM20.0768 2.1223V0.408714C20.0768 0.246523 19.9428 0.11959 19.7877 0.11959C19.6255 0.11959 19.4986 0.253574 19.4986 0.408714V13.2359C19.4986 13.3981 19.6325 13.5251 19.7877 13.5251C19.9499 13.5251 20.0768 13.3911 20.0768 13.2359V6.68482H26.0003L20.0768 2.1223Z" fill="#317CFC"/>
</g>
<defs>
<clipPath id="clip0_492_90">
<rect width="26" height="26" fill="white"/>
</clipPath>
</defs>
</svg>
