<svg width="26" height="24" viewBox="0 0 26 24" fill="none" xmlns="http://www.w3.org/2000/svg">
<path fill-rule="evenodd" clip-rule="evenodd" d="M13.0377 0.540346L13.6944 2.26983C13.7035 2.2949 13.7199 2.31667 13.7415 2.33235C13.7631 2.34804 13.7889 2.35694 13.8156 2.35791L15.6633 2.44799C15.789 2.45411 15.8404 2.61244 15.7423 2.69125L14.3004 3.8502C14.2794 3.86667 14.2638 3.88902 14.2556 3.9144C14.2473 3.93978 14.2468 3.96705 14.2541 3.99272L14.7394 5.77783C14.7724 5.89922 14.6378 5.9971 14.5325 5.92815L12.9847 4.91496C12.9626 4.90008 12.9365 4.89213 12.9098 4.89213C12.8831 4.89213 12.857 4.90008 12.8349 4.91496L11.2871 5.9282C11.1818 5.9971 11.0472 5.89927 11.0802 5.77789L11.5655 3.99272C11.5728 3.96705 11.5723 3.93978 11.5641 3.91439C11.5558 3.88901 11.5402 3.86666 11.5192 3.8502L10.0773 2.69125C9.97917 2.61244 10.0306 2.45411 10.1563 2.44799L12.004 2.35791C12.0307 2.35695 12.0565 2.34805 12.0781 2.33236C12.0997 2.31667 12.1161 2.2949 12.1253 2.26983L12.7819 0.540346C12.8263 0.4234 12.9933 0.4234 13.0377 0.540346ZM21.612 14.7713C24.0354 14.7713 26 16.7359 26 19.1593C26 21.5828 24.0354 23.5473 21.612 23.5473C19.1886 23.5473 17.2241 21.5828 17.2241 19.1593C17.2241 16.7359 19.1886 14.7713 21.612 14.7713ZM21.0357 19.5464L20.0552 18.5659C19.8011 18.3118 19.3889 18.3118 19.1347 18.5659C18.8807 18.82 18.8807 19.2322 19.1347 19.4863L20.5768 20.9284C20.8309 21.1825 21.2431 21.1825 21.4972 20.9284C22.3664 20.0592 23.2258 19.1801 24.091 18.3069C24.3433 18.0523 24.3425 17.6414 24.0882 17.3885C23.8338 17.1356 23.4218 17.1363 23.1692 17.3914L21.0357 19.5464ZM12.9099 7.50732C14.7096 7.50732 16.1686 8.9663 16.1686 10.766C16.1686 12.5658 14.7096 14.0248 12.9099 14.0248C11.1101 14.0248 9.65113 12.5658 9.65113 10.766C9.65113 8.9663 11.1101 7.50732 12.9099 7.50732ZM7.13596 20.3182L16.4859 20.3181C16.4004 19.9378 16.3573 19.5491 16.3574 19.1593C16.3574 18.0792 16.6835 17.0753 17.2423 16.2404C16.0978 15.2005 14.578 14.5664 12.9099 14.5664C9.8126 14.5664 7.22582 16.7512 6.6061 19.6637C6.58894 19.7427 6.58973 19.8245 6.60841 19.9032C6.6271 19.9818 6.6632 20.0552 6.71406 20.118C6.76492 20.1809 6.82923 20.2315 6.90225 20.2661C6.97527 20.3007 7.05514 20.3185 7.13596 20.3182ZM25.7887 8.04985L24.6192 9.48327C24.6021 9.50374 24.5915 9.52884 24.5887 9.55539C24.5859 9.58193 24.5911 9.6087 24.6036 9.63228L25.4494 11.2775C25.507 11.3894 25.3956 11.5131 25.2783 11.4676L23.5537 10.7983C23.5289 10.7884 23.5017 10.786 23.4756 10.7916C23.4495 10.7971 23.4257 10.8103 23.4071 10.8295L22.1038 12.1424C22.0152 12.2316 21.8631 12.164 21.8702 12.0383L21.9737 10.1913C21.9756 10.1647 21.9694 10.1381 21.9561 10.115C21.9427 10.0919 21.9228 10.0732 21.8988 10.0615L20.2474 9.22771C20.1352 9.171 20.1525 9.00546 20.2741 8.97334L22.0628 8.50106C22.0887 8.49456 22.112 8.48049 22.1299 8.46066C22.1477 8.44082 22.1593 8.41612 22.163 8.3897L22.4457 6.56152C22.465 6.43715 22.6278 6.40254 22.6959 6.50832L23.6978 8.0635C23.712 8.08612 23.7326 8.10399 23.757 8.11485C23.7813 8.1257 23.8084 8.12904 23.8347 8.12444L25.6608 7.82837C25.7843 7.80832 25.8678 7.95295 25.7887 8.04985ZM20.4193 2.58676C20.4394 2.46332 20.2947 2.37979 20.1978 2.45888L18.7644 3.62834C18.7439 3.64546 18.7188 3.6561 18.6922 3.65889C18.6657 3.66168 18.6389 3.65649 18.6153 3.64399L16.9701 2.79812C16.8582 2.7406 16.7345 2.85196 16.78 2.96929L17.4493 4.6939C17.4592 4.71867 17.4616 4.74583 17.4561 4.77193C17.4505 4.79804 17.4373 4.8219 17.4182 4.84048L16.1053 6.14384C16.0159 6.23245 16.0836 6.3845 16.2093 6.37746L18.0563 6.27389C18.0829 6.27207 18.1095 6.27823 18.1326 6.29157C18.1557 6.30491 18.1743 6.32484 18.1861 6.3488L19.0199 8.00018C19.0766 8.11253 19.2422 8.09508 19.2743 7.97348L19.7466 6.18484C19.7531 6.15896 19.7671 6.1356 19.787 6.11774C19.8068 6.09988 19.8315 6.08834 19.8579 6.08458L21.6861 5.80188C21.8105 5.78265 21.8451 5.61983 21.7393 5.55169L20.1842 4.54982C20.1616 4.53564 20.1437 4.51504 20.1329 4.49066C20.122 4.46629 20.1187 4.43923 20.1232 4.41294L20.4193 2.58676ZM0.158798 7.82831L1.98492 8.12439C2.01121 8.12897 2.03827 8.12563 2.06264 8.11478C2.08702 8.10392 2.10762 8.08605 2.1218 8.06345L3.12367 6.50832C3.19181 6.40254 3.35463 6.43715 3.37386 6.56152L3.65656 8.38975C3.66032 8.41617 3.67186 8.44088 3.68972 8.46071C3.70758 8.48055 3.73094 8.49461 3.75682 8.50112L5.54546 8.9734C5.66712 9.00552 5.68451 9.17105 5.57222 9.22776L3.92084 10.0616C3.89688 10.0734 3.87695 10.092 3.86361 10.1151C3.85027 10.1382 3.84411 10.1648 3.84593 10.1914L3.94949 12.0384C3.95653 12.164 3.80449 12.2317 3.71587 12.1425L2.41246 10.8294C2.39388 10.8103 2.37002 10.7971 2.34391 10.7915C2.31781 10.786 2.29065 10.7883 2.26588 10.7983L0.541269 11.4676C0.423998 11.5131 0.312577 11.3894 0.370156 11.2775L1.21602 9.63223C1.24148 9.58277 1.23552 9.52628 1.20037 9.48321L0.0309102 8.0498C-0.0481732 7.9529 0.0353519 7.80827 0.158798 7.82831ZM5.62184 2.45888C5.52493 2.37979 5.38031 2.46332 5.40035 2.58676L5.69642 4.41283C5.70101 4.43912 5.69766 4.46618 5.68681 4.49056C5.67596 4.51494 5.65809 4.53553 5.63549 4.54971L4.0803 5.55158C3.97452 5.61972 4.00913 5.78255 4.1335 5.80177L5.96173 6.08447C5.98815 6.08823 6.01286 6.09977 6.03269 6.11763C6.05253 6.13549 6.06659 6.15885 6.0731 6.18473L6.54538 7.97337C6.5775 8.09503 6.74303 8.11242 6.79974 8.00008L7.63353 6.3487C7.64528 6.32473 7.6639 6.30481 7.68701 6.29147C7.71013 6.27813 7.73669 6.27197 7.76332 6.27378L9.61035 6.37735C9.73596 6.38439 9.80367 6.23235 9.71435 6.14367L8.40145 4.84037C8.38229 4.8218 8.36909 4.79793 8.36354 4.77183C8.358 4.74572 8.36035 4.71856 8.37031 4.69379L9.03959 2.96913C9.08509 2.85186 8.96143 2.74043 8.84952 2.79801L7.20432 3.64388C7.18073 3.65637 7.15396 3.66155 7.12742 3.65876C7.10088 3.65597 7.07578 3.64534 7.0553 3.62823L5.62184 2.45888Z" fill="#317CFC"/>
</svg>
