<svg width="26" height="26" viewBox="0 0 26 26" fill="none" xmlns="http://www.w3.org/2000/svg">
<path d="M25.2488 20.0405C25.7194 20.6327 26 21.3827 26 22.1991C26 24.1182 24.4482 25.67 22.5291 25.67C21.2263 25.67 20.0932 24.9549 19.4997 23.8953C19.4876 23.8446 19.4629 23.799 19.4287 23.7616C19.1912 23.2923 19.0582 22.7615 19.0582 22.1991C19.0582 20.28 20.6227 18.7282 22.5291 18.7282C23.6071 18.7282 24.5698 19.2178 25.2064 19.988C25.2178 20.007 25.2324 20.0247 25.2488 20.0405ZM24.6256 21.1033C24.7459 20.983 24.7459 20.7867 24.6256 20.6663C24.5052 20.546 24.3089 20.546 24.1886 20.6663L21.7944 23.0605L20.8697 22.1421C20.7493 22.0217 20.553 22.0217 20.4326 22.1421C20.3123 22.2624 20.3123 22.4588 20.4326 22.5791L21.5791 23.7192C21.6361 23.7762 21.7184 23.8078 21.7944 23.8078C21.8767 23.8078 21.9527 23.7762 22.0224 23.7192L24.6256 21.1033ZM25.1576 3.45754V6.16205H0V3.44488C0 3.15352 0.234348 2.91284 0.532034 2.91284H3.46456V3.71089C3.46456 4.34427 3.97759 4.8573 4.61096 4.8573C5.238 4.8573 5.75103 4.33793 5.75737 3.69823V2.92551H8.77223V3.71089C8.77223 4.34427 9.28526 4.8573 9.91864 4.8573C10.552 4.8573 11.065 4.33793 11.065 3.69823V2.92551H14.0862V3.71089C14.0862 4.34427 14.5993 4.8573 15.2326 4.8573C15.8597 4.8573 16.3727 4.33793 16.379 3.69823V2.92551H19.3939V3.71089C19.3939 4.34427 19.9069 4.8573 20.5403 4.8573C21.1674 4.8573 21.6804 4.33793 21.6867 3.69823V2.92551H24.6256C24.9169 2.92551 25.1576 3.15986 25.1576 3.45754ZM19.7549 14.1806H21.8514V16.277H19.7549V14.1806ZM19.7549 9.0439H21.8514V11.1404H19.7549V9.0439Z" fill="#317CFC"/>
<path d="M21.0669 2.62144V3.69817C21.0669 3.98952 20.8326 4.23021 20.5412 4.23021C20.2499 4.23021 20.0155 3.99586 20.0155 3.70451V1.5257C20.0155 1.23435 20.2499 1 20.5412 1C20.8262 1 21.0606 1.23435 21.0669 1.53203V2.62144ZM14.2708 19.3045H16.3673V21.401H14.2708V19.3045ZM14.2708 14.1805H16.3673V16.277H14.2708V14.1805ZM14.2708 9.04385H16.3673V11.1403H14.2708V9.04385ZM15.7592 2.62144V3.69184C15.7592 3.98952 15.5249 4.23021 15.2335 4.23021C14.9422 4.23021 14.7078 3.99586 14.7078 3.70451V1.5257C14.7078 1.23435 14.9422 1 15.2335 1C15.5186 1 15.7592 1.23435 15.7592 1.53203V2.62144ZM8.77947 19.3045H10.8759V21.401H8.77947V19.3045ZM8.77947 14.1805H10.8759V16.277H8.77947V14.1805ZM8.77947 9.04385H10.8759V11.1403H8.77947V9.04385ZM10.4452 2.62144V3.69817C10.4452 3.98952 10.2109 4.23021 9.91954 4.23021C9.62819 4.23021 9.39384 3.99586 9.39384 3.70451V1.5257C9.39384 1.23435 9.62819 1 9.91954 1C10.2109 1 10.4452 1.23435 10.4452 1.53203V2.62144ZM3.30078 19.3045H5.39725V21.401H3.30078V19.3045ZM3.30078 14.1805H5.39725V16.277H3.30078V14.1805ZM3.30078 9.04385H5.39725V11.1403H3.30078V9.04385ZM5.13757 2.62144V3.69184C5.13757 3.98952 4.90322 4.23021 4.61187 4.23021C4.32051 4.23021 4.08617 3.99586 4.08617 3.70451V1.5257C4.08617 1.23435 4.32051 1 4.61187 1C4.90322 1 5.1439 1.23435 5.13757 1.5257V2.62144Z" fill="#317CFC"/>
<path d="M25.1576 6.77002V19.0663C24.447 18.4678 23.5298 18.1074 22.5291 18.1074C20.2743 18.1074 18.4438 19.9379 18.4438 22.1927C18.4438 22.7108 18.5401 23.2061 18.7168 23.6621H0.532034C0.240682 23.6621 0 23.4278 0 23.1301V6.77002H25.1576ZM22.1554 11.761C22.3328 11.761 22.4721 11.6217 22.4594 11.457V8.73981C22.4594 8.57513 22.3264 8.43579 22.1554 8.43579H19.4382C19.2736 8.43579 19.1342 8.5688 19.1342 8.73981V11.457C19.1342 11.6217 19.2672 11.761 19.4382 11.761H22.1554ZM22.1554 16.8913C22.3328 16.8913 22.4721 16.7583 22.4594 16.5873V13.8701C22.4594 13.7055 22.3264 13.5661 22.1554 13.5661H19.4382C19.2736 13.5661 19.1342 13.6991 19.1342 13.8701V16.5873C19.1342 16.752 19.2672 16.8913 19.4382 16.8913H22.1554ZM16.6767 22.0217C16.8477 22.0217 16.9871 21.8823 16.9808 21.7176V19.0005C16.9808 18.8358 16.8477 18.6964 16.6767 18.6964H13.9596C13.7949 18.6964 13.6555 18.8295 13.6555 19.0005V21.7176C13.6555 21.8823 13.7886 22.0217 13.9596 22.0217H16.6767ZM16.6767 16.8913C16.8477 16.8913 16.9871 16.7583 16.9808 16.5873V13.8701C16.9808 13.7055 16.8477 13.5661 16.6767 13.5661H13.9596C13.7949 13.5661 13.6555 13.6991 13.6555 13.8701V16.5873C13.6555 16.752 13.7886 16.8913 13.9596 16.8913H16.6767ZM16.6767 11.761C16.8477 11.761 16.9871 11.6217 16.9808 11.457V8.73981C16.9808 8.57513 16.8477 8.43579 16.6767 8.43579H13.9596C13.7949 8.43579 13.6555 8.5688 13.6555 8.73981V11.457C13.6555 11.6217 13.7886 11.761 13.9596 11.761H16.6767ZM11.4957 21.7176V19.0005C11.4957 18.8358 11.3627 18.6964 11.1917 18.6964H8.47454C8.30987 18.6964 8.17052 18.8295 8.17052 19.0005V21.7176C8.17052 21.8823 8.30353 22.0217 8.47454 22.0217H11.1917C11.3564 22.0217 11.4957 21.8823 11.4957 21.7176ZM11.4957 16.5873V13.8701C11.4957 13.7055 11.3627 13.5661 11.1917 13.5661H8.47454C8.30987 13.5661 8.17052 13.6991 8.17052 13.8701V16.5873C8.17052 16.752 8.30353 16.8913 8.47454 16.8913H11.1917C11.3564 16.8913 11.4957 16.7583 11.4957 16.5873ZM11.4957 11.457V8.73981C11.4957 8.57513 11.3627 8.43579 11.1917 8.43579H8.47454C8.30987 8.43579 8.17052 8.5688 8.17052 8.73981V11.457C8.17052 11.6217 8.30353 11.761 8.47454 11.761H11.1917C11.3564 11.761 11.4957 11.6217 11.4957 11.457ZM6.01705 21.7176V19.0005C6.01705 18.8358 5.88404 18.6964 5.71303 18.6964H2.99586C2.83118 18.6964 2.69184 18.8295 2.69184 19.0005V21.7176C2.69184 21.8823 2.82485 22.0217 2.99586 22.0217H5.7067C5.87771 22.0217 6.01705 21.8823 6.01705 21.7176ZM6.01705 16.5873V13.8701C6.01705 13.7055 5.88404 13.5661 5.71303 13.5661H2.99586C2.83118 13.5661 2.69184 13.6991 2.69184 13.8701V16.5873C2.69184 16.752 2.82485 16.8913 2.99586 16.8913H5.7067C5.87771 16.8913 6.01705 16.7583 6.01705 16.5873ZM6.01705 11.457V8.73981C6.01705 8.57513 5.88404 8.43579 5.71303 8.43579H2.99586C2.83118 8.43579 2.69184 8.5688 2.69184 8.73981V11.457C2.69184 11.6217 2.82485 11.761 2.99586 11.761H5.7067C5.87771 11.761 6.01705 11.6217 6.01705 11.457Z" fill="#317CFC"/>
</svg>
