<svg width="26" height="26" viewBox="0 0 26 26" fill="none" xmlns="http://www.w3.org/2000/svg">
<g clip-path="url(#clip0_492_27)">
<path d="M21.112 2.39614V23.5993C21.112 24.8106 20.1282 25.7944 18.9169 25.7944H3.30642C2.09518 25.7944 1.11133 24.8106 1.11133 23.5993V2.39614C1.11133 1.18491 2.09518 0.20105 3.30642 0.20105H18.9126C20.1282 0.20105 21.112 1.18491 21.112 2.39614Z" fill="#A8C5F8"/>
<path d="M6.35336 22.6812C6.35336 23.0704 6.0429 23.3808 5.65373 23.3808C5.26894 23.3808 4.9541 23.066 4.9541 22.6812C4.9541 22.2964 5.26894 21.9816 5.65373 21.9816C6.03853 21.9859 6.35336 22.2964 6.35336 22.6812Z" fill="#1C1A1E"/>
<path d="M18.9165 26.0001H3.3103C1.98975 26.0001 0.914062 24.9244 0.914062 23.6038V2.39624C0.914062 1.07568 1.98975 0 3.3103 0H18.9165C20.237 0 21.3127 1.07568 21.3127 2.39624V23.5994C21.3127 24.9244 20.237 26.0001 18.9165 26.0001ZM3.3103 0.402288C2.20838 0.402288 1.31635 1.29869 1.31635 2.39624V23.5994C1.31635 24.7014 2.21275 25.5934 3.3103 25.5934H18.9165C20.0184 25.5934 20.9104 24.697 20.9104 23.5994V2.39624C20.9104 1.29432 20.014 0.402288 18.9165 0.402288H3.3103Z" fill="#317CFC"/>
<path d="M16.0003 9.90409L13.2368 11.4433L13.2412 14.2462L12.0124 14.9283L11.1466 11.0891L8.34375 8.34303L9.57685 7.65652L11.9556 9.13449L14.7191 7.5953L10.4864 3.45436L11.7107 2.77222L17.2334 6.19604L22.9267 3.02583C23.5651 2.67164 24.3653 2.89902 24.7195 3.53744C24.8988 3.85665 24.9294 4.21521 24.8376 4.54316C24.7457 4.86674 24.5315 5.15534 24.2123 5.33462L18.5146 8.50919L18.5234 14.9983L17.299 15.6804L16.0003 9.90409Z" fill="#007AFD"/>
<path d="M17.2988 15.8772C17.2725 15.8772 17.2419 15.8729 17.2157 15.8597C17.1873 15.8467 17.1623 15.8273 17.1426 15.803C17.1228 15.7787 17.109 15.7503 17.102 15.7198L15.8645 10.2102L13.4377 11.5614L13.442 14.2462C13.442 14.3205 13.4027 14.3861 13.3371 14.4211L12.1084 15.1033C12.0812 15.1185 12.0508 15.1272 12.0196 15.1286C11.9884 15.1301 11.9573 15.1241 11.9289 15.1114C11.9004 15.0986 11.8753 15.0794 11.8556 15.0552C11.8359 15.031 11.8221 15.0025 11.8154 14.9721L10.9627 11.1897L8.19918 8.48737C8.15545 8.44364 8.13359 8.37805 8.14233 8.31683C8.15108 8.25562 8.18606 8.19877 8.24291 8.16816L9.47163 7.48165C9.53722 7.44667 9.61156 7.44667 9.67278 7.48602L11.9553 8.8984L14.3778 7.54724L10.3418 3.59432C10.2981 3.55059 10.2762 3.485 10.285 3.42379C10.2937 3.36257 10.3287 3.30572 10.3855 3.27512L11.6099 2.59297C11.6755 2.55799 11.7498 2.55799 11.811 2.59735L17.2332 5.95558L22.8215 2.84222C22.9959 2.7447 23.1879 2.6826 23.3864 2.6595C23.585 2.63639 23.7861 2.65274 23.9783 2.70759C24.1705 2.76244 24.3499 2.85472 24.5063 2.97913C24.6628 3.10354 24.7931 3.25762 24.8898 3.43253C25.0865 3.78672 25.1346 4.19775 25.0253 4.58692C24.9116 4.98047 24.6536 5.30405 24.2994 5.50082L18.7068 8.61855L18.7155 14.9896C18.7155 15.0639 18.6762 15.1295 18.6106 15.1645L17.3862 15.8466C17.3687 15.8685 17.3337 15.8772 17.2988 15.8772ZM16.0001 9.70298C16.0263 9.70298 16.0569 9.70735 16.0832 9.72047C16.14 9.74671 16.1837 9.79918 16.1968 9.8604L17.4343 15.3744L18.322 14.8803L18.3132 8.50923C18.3132 8.4349 18.3526 8.36931 18.4182 8.33433L24.1158 5.15975C24.3782 5.01545 24.5662 4.77495 24.6493 4.48635C24.728 4.19775 24.693 3.89604 24.5487 3.63368C24.4033 3.37432 24.1611 3.18314 23.8751 3.10201C23.589 3.02087 23.2825 3.05639 23.0226 3.20078L17.3294 6.36661C17.2638 6.40159 17.1894 6.40159 17.1282 6.36224L11.7061 3.00401L10.8184 3.49812L14.8544 7.45104C14.8982 7.49477 14.92 7.56036 14.9113 7.62158C14.9025 7.68279 14.8675 7.73964 14.8107 7.77025L12.0472 9.30944C11.9816 9.34442 11.9072 9.34442 11.846 9.30506L9.56346 7.89268L8.67143 8.39117L11.2863 10.9492C11.3125 10.9754 11.3344 11.0104 11.3431 11.0498L12.1477 14.631L13.0398 14.1369L13.0354 11.4521C13.0354 11.3777 13.0747 11.3121 13.1403 11.2771L15.9039 9.73796C15.9345 9.71172 15.9695 9.70298 16.0001 9.70298ZM5.65427 22.1827C5.54495 22.1827 5.45312 22.0908 5.45312 21.9815C5.45312 19.0343 7.84936 16.6381 10.7966 16.6381C10.9059 16.6381 10.9977 16.7299 10.9977 16.8392C10.9977 16.9485 10.9059 17.0404 10.7966 17.0404C8.07237 17.0404 5.85541 19.2573 5.85541 21.9815C5.85541 22.0952 5.76359 22.1827 5.65427 22.1827Z" fill="#317CFC"/>
<path d="M10.1411 17.7751C10.1021 17.775 10.064 17.7637 10.0312 17.7426C9.9985 17.7214 9.97252 17.6913 9.9564 17.6559C9.94028 17.6204 9.93468 17.581 9.94029 17.5425C9.9459 17.5039 9.96247 17.4678 9.98802 17.4384L10.5259 16.8393L9.98802 16.2402C9.95265 16.2002 9.93462 16.1478 9.9379 16.0945C9.94118 16.0412 9.9655 15.9914 10.0055 15.956C10.0455 15.9206 10.0979 15.9026 10.1512 15.9059C10.2046 15.9092 10.2544 15.9335 10.2897 15.9735L10.9456 16.7081C11.0156 16.7825 11.0156 16.9005 10.9456 16.9749L10.2897 17.7095C10.2504 17.7532 10.1979 17.7751 10.1411 17.7751ZM5.65468 23.582C5.16057 23.582 4.75391 23.1797 4.75391 22.6812C4.75434 22.5037 4.80735 22.3303 4.90626 22.1828C5.00516 22.0354 5.14552 21.9205 5.30963 21.8528C5.47373 21.7851 5.65423 21.7675 5.82834 21.8022C6.00244 21.8369 6.16235 21.9225 6.28789 22.048C6.41343 22.1736 6.49897 22.3335 6.53371 22.5076C6.56845 22.6817 6.55084 22.8622 6.4831 23.0263C6.41536 23.1904 6.30052 23.3307 6.15309 23.4296C6.00565 23.5286 5.83222 23.5816 5.65468 23.582ZM5.65468 22.1827C5.58801 22.1807 5.52161 22.1921 5.45942 22.2163C5.39723 22.2404 5.34051 22.2767 5.29263 22.3232C5.24475 22.3696 5.20668 22.4252 5.18067 22.4866C5.15466 22.5481 5.14124 22.6141 5.14121 22.6808C5.14119 22.7475 5.15454 22.8135 5.1805 22.875C5.20646 22.9364 5.24448 22.992 5.29232 23.0385C5.34016 23.085 5.39684 23.1214 5.45901 23.1456C5.52118 23.1698 5.58757 23.1812 5.65424 23.1793C5.78384 23.1755 5.90686 23.1214 5.99721 23.0284C6.08757 22.9354 6.13813 22.8109 6.13819 22.6812C6.13825 22.5516 6.08779 22.427 5.99752 22.3339C5.90725 22.2409 5.78427 22.1866 5.65468 22.1827ZM8.84675 22.69C8.79428 22.69 8.74618 22.6725 8.70682 22.6331C8.68813 22.6145 8.6733 22.5923 8.66318 22.5679C8.65306 22.5436 8.64785 22.5174 8.64785 22.491C8.64785 22.4646 8.65306 22.4385 8.66318 22.4141C8.6733 22.3897 8.68813 22.3675 8.70682 22.3489L10.4122 20.6435C10.4308 20.6249 10.453 20.6101 10.4774 20.6C10.5018 20.5899 10.5279 20.5847 10.5543 20.5847C10.5807 20.5847 10.6068 20.5899 10.6312 20.6C10.6556 20.6101 10.6777 20.6249 10.6964 20.6435C10.7151 20.6622 10.7299 20.6844 10.74 20.7087C10.7501 20.7331 10.7553 20.7593 10.7553 20.7857C10.7553 20.8121 10.7501 20.8382 10.74 20.8626C10.7299 20.887 10.7151 20.9091 10.6964 20.9278L8.99105 22.6331C8.97196 22.6517 8.94937 22.6663 8.9246 22.676C8.89983 22.6858 8.87337 22.6905 8.84675 22.69Z" fill="#317CFC"/>
<path d="M10.5518 22.6899C10.4993 22.6899 10.4512 22.6724 10.4119 22.633L8.70654 20.9277C8.68788 20.909 8.67308 20.8868 8.66298 20.8625C8.65288 20.8381 8.64768 20.8119 8.64768 20.7856C8.64768 20.7592 8.65288 20.733 8.66298 20.7086C8.67308 20.6843 8.68788 20.6621 8.70654 20.6434C8.7252 20.6248 8.74736 20.61 8.77174 20.5999C8.79613 20.5898 8.82226 20.5846 8.84865 20.5846C8.87505 20.5846 8.90118 20.5898 8.92557 20.5999C8.94995 20.61 8.97211 20.6248 8.99077 20.6434L10.6961 22.3488C10.7748 22.4275 10.7748 22.5543 10.6961 22.633C10.677 22.6516 10.6544 22.6662 10.6297 22.6759C10.6049 22.6857 10.5784 22.6904 10.5518 22.6899ZM4.07586 17.9193C4.02338 17.9193 3.97529 17.9018 3.93593 17.8624C3.91724 17.8438 3.9024 17.8216 3.89228 17.7972C3.88216 17.7728 3.87695 17.7467 3.87695 17.7203C3.87695 17.6939 3.88216 17.6677 3.89228 17.6434C3.9024 17.619 3.91724 17.5968 3.93593 17.5782L5.64128 15.8728C5.65994 15.8542 5.6821 15.8394 5.70648 15.8293C5.73087 15.8192 5.757 15.814 5.7834 15.814C5.80979 15.814 5.83592 15.8192 5.86031 15.8293C5.88469 15.8394 5.90684 15.8542 5.92551 15.8728C5.94417 15.8915 5.95897 15.9136 5.96907 15.938C5.97917 15.9624 5.98437 15.9886 5.98437 16.0149C5.98437 16.0413 5.97917 16.0675 5.96907 16.0919C5.95897 16.1162 5.94417 16.1384 5.92551 16.1571L4.22016 17.8624C4.20106 17.881 4.17848 17.8955 4.15371 17.9053C4.12894 17.9151 4.10247 17.9198 4.07586 17.9193Z" fill="#317CFC"/>
<path d="M5.78052 17.9193C5.72805 17.9193 5.67995 17.9018 5.64059 17.8625L3.93524 16.1571C3.91658 16.1385 3.90177 16.1163 3.89167 16.0919C3.88157 16.0675 3.87638 16.0414 3.87638 16.015C3.87638 15.9886 3.88157 15.9625 3.89167 15.9381C3.90177 15.9137 3.91658 15.8916 3.93524 15.8729C3.9539 15.8542 3.97606 15.8394 4.00044 15.8293C4.02483 15.8192 4.05096 15.814 4.07735 15.814C4.10375 15.814 4.12988 15.8192 4.15426 15.8293C4.17865 15.8394 4.2008 15.8542 4.21947 15.8729L5.92482 17.5782C6.00353 17.6569 6.00353 17.7838 5.92482 17.8625C5.90572 17.881 5.88314 17.8956 5.85837 17.9054C5.8336 17.9151 5.80714 17.9199 5.78052 17.9193ZM18.6494 22.6899H12.9036C12.7943 22.6899 12.7025 22.5981 12.7025 22.4888C12.7025 22.3795 12.7943 22.2876 12.9036 22.2876H18.6494C18.7587 22.2876 18.8505 22.3795 18.8505 22.4888C18.8505 22.5981 18.7587 22.6899 18.6494 22.6899ZM18.0459 20.7965H12.9036C12.7943 20.7965 12.7025 20.7047 12.7025 20.5954C12.7025 20.4861 12.7943 20.3943 12.9036 20.3943H18.0459C18.1553 20.3943 18.2471 20.4861 18.2471 20.5954C18.2471 20.7047 18.1553 20.7965 18.0459 20.7965ZM17.53 18.9032H12.9036C12.7943 18.9032 12.7025 18.8113 12.7025 18.702C12.7025 18.5927 12.7943 18.5009 12.9036 18.5009H17.53C17.6393 18.5009 17.7311 18.5927 17.7311 18.702C17.7311 18.8157 17.6436 18.9032 17.53 18.9032ZM9.21746 4.86244H4.07517C3.96585 4.86244 3.87402 4.77061 3.87402 4.66129C3.87402 4.55198 3.96585 4.46015 4.07517 4.46015H9.21746C9.32678 4.46015 9.4186 4.55198 9.4186 4.66129C9.4186 4.77061 9.32678 4.86244 9.21746 4.86244ZM8.70148 2.96906H4.07517C3.96585 2.96906 3.87402 2.87723 3.87402 2.76792C3.87402 2.6586 3.96585 2.56677 4.07517 2.56677H8.70148C8.8108 2.56677 8.90262 2.6586 8.90262 2.76792C8.90262 2.88161 8.81517 2.96906 8.70148 2.96906Z" fill="#317CFC"/>
<path d="M2.74182 8.63608C2.83365 8.63608 2.91236 8.71041 2.91236 8.80661V11.3297C2.91236 11.3749 2.89439 11.4183 2.86241 11.4502C2.83043 11.4822 2.78705 11.5002 2.74182 11.5002C2.6966 11.5002 2.65322 11.4822 2.62124 11.4502C2.58926 11.4183 2.57129 11.3749 2.57129 11.3297V8.80661C2.57129 8.71041 2.64563 8.63608 2.74182 8.63608ZM2.74182 8.06763C2.77555 8.06763 2.80852 8.07763 2.83657 8.09637C2.86461 8.11511 2.88647 8.14174 2.89938 8.1729C2.91229 8.20406 2.91566 8.23835 2.90908 8.27143C2.9025 8.30451 2.88626 8.3349 2.86241 8.35875C2.83856 8.3826 2.80817 8.39884 2.77509 8.40542C2.74201 8.412 2.70772 8.40862 2.67656 8.39572C2.6454 8.38281 2.61877 8.36095 2.60003 8.33291C2.58129 8.30486 2.57129 8.27189 2.57129 8.23816C2.57129 8.14196 2.64563 8.06763 2.74182 8.06763Z" fill="#1C1A1E"/>
</g>
<defs>
<clipPath id="clip0_492_27">
<rect width="26" height="26" fill="white"/>
</clipPath>
</defs>
</svg>
