<svg width="26" height="26" viewBox="0 0 26 26" fill="none" xmlns="http://www.w3.org/2000/svg">
<path d="M11.4771 9.53164C11.4771 9.11097 11.8181 8.76992 12.2388 8.76992C12.6595 8.76992 13.0005 9.11097 13.0005 9.53164V13.8891C13.0133 13.8846 13.026 13.8798 13.0389 13.8755L16.0655 12.8666V8.12398C16.0655 6.73821 14.9381 5.61087 13.5524 5.61087H4.79534C3.40957 5.61087 2.28223 6.73827 2.28223 8.12398V19.946C2.28223 21.0663 3.01916 22.0174 4.03362 22.3408V23.2299C4.03362 23.6506 4.37467 23.9916 4.79534 23.9916C5.21601 23.9916 5.55706 23.6506 5.55706 23.2299V22.4591H12.2243C11.7405 21.348 11.4765 20.1278 11.4765 18.8597L11.4771 9.53164ZM6.87062 18.6325C6.87062 19.0531 6.52957 19.3942 6.1089 19.3942C5.68823 19.3942 5.34718 19.0531 5.34718 18.6325V9.53164C5.34718 9.11097 5.68823 8.76992 6.1089 8.76992C6.52957 8.76992 6.87062 9.11097 6.87062 9.53164V18.6325ZM9.93557 18.6325C9.93557 19.0531 9.59452 19.3942 9.17385 19.3942C8.75318 19.3942 8.41213 19.0531 8.41213 18.6325V9.53164C8.41213 9.11097 8.75318 8.76992 9.17385 8.76992C9.59452 8.76992 9.93557 9.11097 9.93557 9.53164V18.6325ZM7.6464 1.52344H10.7014V4.08743H12.2248V1.51841C12.2247 0.68118 11.5436 0 10.7063 0H7.64137C6.80409 0 6.12296 0.68118 6.12296 1.51841V4.08738H7.6464V1.52344Z" fill="#317CFC"/>
<path d="M23.1975 15.3207L18.6 13.7882C18.4437 13.7361 18.2746 13.7361 18.1183 13.7882L13.5209 15.3207C13.3692 15.3712 13.2373 15.4682 13.1438 15.5979C13.0503 15.7276 13 15.8834 13 16.0433V18.8596C12.9986 20.431 13.4923 21.9629 14.4111 23.2377C15.33 24.5125 16.6271 25.4653 18.1183 25.9608C18.2747 26.013 18.4437 26.013 18.6001 25.9608C20.0913 25.4653 21.3884 24.5124 22.3072 23.2377C23.226 21.9629 23.7198 20.431 23.7184 18.8596V16.0433C23.7183 15.8834 23.668 15.7276 23.5746 15.5979C23.4811 15.4682 23.3492 15.3712 23.1975 15.3207ZM20.5355 19.6892L17.7862 21.3615C17.6672 21.4341 17.5304 21.4725 17.3909 21.4725C17.2715 21.4726 17.1537 21.4446 17.0472 21.3908C16.9406 21.337 16.8481 21.2589 16.7773 21.1628L15.9656 20.0619C15.7159 19.7233 15.788 19.2464 16.1266 18.9968C16.4651 18.7471 16.942 18.8192 17.1917 19.1578L17.5899 19.6978L19.7438 18.3876C20.1031 18.169 20.5717 18.2831 20.7904 18.6426C21.009 19.0019 20.8949 19.4705 20.5355 19.6892Z" fill="#317CFC"/>
</svg>
