<svg width="26" height="26" viewBox="0 0 26 26" fill="none" xmlns="http://www.w3.org/2000/svg">
<path d="M19.1717 17.6423C18.3453 17.6425 17.5375 17.8877 16.8505 18.347C16.1635 18.8062 15.6281 19.4589 15.3119 20.2224C14.9958 20.9859 14.9132 21.8261 15.0745 22.6365C15.2359 23.447 15.6339 24.1915 16.2183 24.7757C16.8027 25.36 17.5473 25.7579 18.3578 25.919C19.1683 26.0802 20.0084 25.9974 20.7719 25.6811C21.5353 25.3648 22.1878 24.8293 22.6469 24.1421C23.106 23.455 23.3511 22.6472 23.3511 21.8208C23.3501 20.7128 22.9095 19.6505 22.126 18.8671C21.3425 18.0837 20.2797 17.6432 19.1717 17.6423ZM21.1221 21.064L18.9586 23.2322C18.9154 23.2754 18.8639 23.3096 18.8073 23.3327C18.7507 23.3558 18.6901 23.3674 18.6289 23.3668C18.5056 23.3672 18.3871 23.3188 18.2993 23.2322L17.2176 22.1504C17.1306 22.0628 17.0818 21.9443 17.0818 21.8208C17.0818 21.6973 17.1306 21.5788 17.2176 21.4912C17.2605 21.4481 17.3115 21.414 17.3677 21.3907C17.4239 21.3674 17.4841 21.3554 17.5449 21.3554C17.6057 21.3554 17.6659 21.3674 17.722 21.3907C17.7782 21.414 17.8292 21.4481 17.8722 21.4912L18.6289 22.2479L20.4675 20.4094C20.5104 20.3664 20.5614 20.3322 20.6176 20.3089C20.6738 20.2856 20.734 20.2736 20.7948 20.2736C20.8556 20.2736 20.9158 20.2856 20.972 20.3089C21.0281 20.3322 21.0791 20.3664 21.1221 20.4094C21.1662 20.4518 21.2012 20.5026 21.2252 20.5588C21.2491 20.6151 21.2615 20.6756 21.2615 20.7367C21.2615 20.7978 21.2491 20.8583 21.2252 20.9146C21.2012 20.9708 21.1662 21.0217 21.1221 21.064Z" fill="#317CFC"/>
<path d="M14.1473 22.7498H5.66033C5.53719 22.7498 5.4191 22.7009 5.33204 22.6138C5.24497 22.5267 5.19605 22.4087 5.19605 22.2855C5.19605 22.1624 5.24497 22.0443 5.33204 21.9572C5.4191 21.8702 5.53719 21.8212 5.66033 21.8212H14.0637C14.0632 21.5098 14.0912 21.199 14.1473 20.8927H7.51742C7.39429 20.8927 7.2762 20.8438 7.18913 20.7567C7.10206 20.6696 7.05315 20.5516 7.05315 20.4284C7.05315 20.3053 7.10206 20.1872 7.18913 20.1001C7.2762 20.0131 7.39429 19.9641 7.51742 19.9641H14.4119C14.786 19.0065 15.4403 18.1839 16.2893 17.604C17.1383 17.0241 18.1425 16.7138 19.1707 16.7138C19.3851 16.7135 19.5993 16.7274 19.8119 16.7556V4.14494C19.8108 3.77588 19.6637 3.42225 19.4027 3.16128C19.1417 2.90032 18.7881 2.75322 18.419 2.75212H17.7783V1.47536C17.7786 1.25487 17.7291 1.03717 17.6334 0.838513C17.5377 0.639859 17.3984 0.46539 17.2259 0.328143C17.0523 0.188331 16.8495 0.0894291 16.6325 0.0387906C16.4155 -0.0118479 16.1898 -0.0129211 15.9723 0.0356507L3.90026 2.76558C3.89562 2.76558 3.89098 2.76558 3.89098 2.77022C3.55148 2.80666 3.23733 2.96699 3.00863 3.22053C2.77993 3.47407 2.65273 3.80303 2.65137 4.14447V24.6069C2.65247 24.9759 2.79957 25.3296 3.06053 25.5905C3.3215 25.8515 3.67513 25.9986 4.04419 25.9997H16.2365C15.1424 25.2308 14.3926 24.0643 14.1473 22.7498ZM16.1715 0.940985C16.2537 0.922911 16.339 0.92354 16.4209 0.942826C16.5029 0.962112 16.5795 0.999562 16.645 1.05241C16.7087 1.10288 16.7602 1.16709 16.7956 1.24026C16.831 1.31342 16.8493 1.39363 16.8493 1.4749V2.75165H8.15812L16.1715 0.940985ZM11.2316 6.37345C12.3335 6.37355 13.4106 6.70038 14.3267 7.31261C15.2429 7.92485 15.9569 8.795 16.3785 9.81303C16.8001 10.8311 16.9104 11.9512 16.6953 13.0319C16.4803 14.1126 15.9497 15.1053 15.1705 15.8844C14.3913 16.6635 13.3986 17.1941 12.3179 17.409C11.2372 17.6239 10.117 17.5136 9.099 17.0919C8.08101 16.6702 7.21092 15.9561 6.59876 15.0399C5.9866 14.1238 5.65986 13.0466 5.65986 11.9447C5.66195 10.4678 6.24959 9.05192 7.29396 8.00755C8.33833 6.96319 9.75419 6.37554 11.2312 6.37345H11.2316Z" fill="#317CFC"/>
<path d="M8.98377 16.0025C8.35488 14.9072 8.01162 13.6713 7.98558 12.4085H6.61133C6.6864 13.1548 6.94152 13.8717 7.35476 14.4976C7.76799 15.1235 8.32701 15.6402 8.98377 16.0025ZM8.98377 7.88556C8.32772 8.2489 7.76931 8.76556 7.3562 9.39146C6.94308 10.0174 6.68752 10.7339 6.61133 11.48H7.98558C8.0122 10.2172 8.35542 8.98125 8.98377 7.88556ZM10.767 16.4899V12.4085H8.91413C9.01627 14.4095 9.7916 16.0814 10.7666 16.4899H10.767ZM10.767 11.48V7.39807C9.79207 7.81128 9.01627 9.48266 8.91413 11.48H10.767ZM13.548 12.4085H11.6956V16.4899C12.6706 16.0814 13.4459 14.41 13.548 12.4085ZM11.6956 7.39807V11.48H13.548C13.4459 9.48313 12.6706 7.81128 11.6956 7.39807ZM13.4784 16.0025C14.1353 15.6402 14.6945 15.1239 15.1078 14.4979C15.5211 13.8719 15.7763 13.1549 15.8513 12.4085H14.4771C14.4509 13.6711 14.1077 14.9068 13.4789 16.002L13.4784 16.0025ZM15.8513 11.48C15.7751 10.7339 15.5196 10.0174 15.1064 9.39146C14.6933 8.76556 14.1349 8.2489 13.4789 7.88556C14.1072 8.98125 14.4504 10.2172 14.4771 11.48H15.8513Z" fill="#317CFC"/>
</svg>
