<svg width="16" height="16" viewBox="0 0 16 16" fill="none" xmlns="http://www.w3.org/2000/svg">
<path fill-rule="evenodd" clip-rule="evenodd" d="M16 8C16 12.4184 12.4184 16 8 16C3.5816 16 0 12.4184 0 8C0 3.5816 3.5816 0 8 0C12.4184 0 16 3.5816 16 8ZM8 7.2C8.21217 7.2 8.41566 7.28429 8.56569 7.43431C8.71571 7.58434 8.8 7.78783 8.8 8V12C8.8 12.2122 8.71571 12.4157 8.56569 12.5657C8.41566 12.7157 8.21217 12.8 8 12.8C7.78783 12.8 7.58434 12.7157 7.43431 12.5657C7.28429 12.4157 7.2 12.2122 7.2 12V8C7.2 7.78783 7.28429 7.58434 7.43431 7.43431C7.58434 7.28429 7.78783 7.2 8 7.2ZM8 5.6C8.21217 5.6 8.41566 5.51571 8.56569 5.36569C8.71571 5.21566 8.8 5.01217 8.8 4.8C8.8 4.58783 8.71571 4.38434 8.56569 4.23431C8.41566 4.08429 8.21217 4 8 4C7.78783 4 7.58434 4.08429 7.43431 4.23431C7.28429 4.38434 7.2 4.58783 7.2 4.8C7.2 5.01217 7.28429 5.21566 7.43431 5.36569C7.58434 5.51571 7.78783 5.6 8 5.6Z" fill="#FCA00E"/>
</svg>
