<svg width="85" height="81" viewBox="0 0 85 81" fill="none" xmlns="http://www.w3.org/2000/svg">
<path d="M42.925 26.5841C37.3081 26.4564 34.2017 30.3606 33.3507 32.3286C26.0104 33.6052 25.3721 38.8711 25.3721 40.7859C25.1168 46.9135 30.4784 48.8709 33.1911 49.0837H53.4567C57.6056 49.0837 59.68 45.0944 59.68 42.7008C59.5204 35.6796 53.7759 35.2009 52.978 35.2009C51.3823 27.8606 46.1164 26.7436 42.925 26.5841Z" fill="#A6B6C2"/>
<path d="M49.7892 39.1902L42.6085 32.3286L35.4277 39.3498H39.7362V44.9348H45.4808V39.1902H49.7892Z" fill="white"/>
<rect x="11.9863" y="14.2595" width="15.6296" height="19.2687" rx="2" transform="rotate(-18.9685 11.9863 14.2595)" fill="#DEE3E7"/>
<path d="M27.6089 21.9564L24.0983 18.1267L23.6196 21.1586L21.5451 20.3607L21.0664 23.0734L19.6303 22.2756L19.4707 24.6692L27.6089 21.9564Z" fill="#C3CDD5"/>
<circle cx="18.9906" cy="20.0416" r="0.95743" fill="#C3CDD5"/>
<rect x="59.543" y="8.89169" width="15.6296" height="19.2687" rx="2" transform="rotate(27.0071 59.543 8.89169)" fill="#DEE3E7"/>
<path d="M64.8629 25.4733L65.1769 20.2875L62.6642 22.0503L61.7962 20.0042L59.513 21.5453L59.0886 19.9581L57.2566 21.5068L64.8629 25.4733Z" fill="#C3CDD5"/>
<circle cx="60.2504" cy="17.9466" r="0.95743" transform="rotate(45.9756 60.2504 17.9466)" fill="#C3CDD5"/>
<rect x="35.9062" y="0.327881" width="17.4415" height="21.2065" rx="2" transform="rotate(9.37635 35.9062 0.327881)" fill="#C3CDD5"/>
<path d="M42.7649 9.19078C41.8713 7.40358 40.3713 8.12697 39.733 8.71206C38.5841 8.45677 38.2969 9.13758 38.2969 9.50989C38.0841 10.8397 37.6267 13.6907 37.499 14.4566C37.3713 15.2226 37.8713 15.5204 38.1373 15.5736C40.2649 15.8928 44.7436 16.5949 45.6372 16.8502C46.5308 17.1055 46.9669 16.7438 47.0733 16.531C47.2861 14.9885 47.7435 11.7439 47.8712 11.1056C47.9988 10.4673 47.6052 10.2014 47.3925 10.1482C46.3818 9.93543 44.0414 9.44609 42.7649 9.19078Z" fill="#DEE3E7"/>
<circle cx="41.6477" cy="12.7013" r="2.77657" fill="#DEE3E7" stroke="#C3CDD5" stroke-width="3"/>
<ellipse cx="42.766" cy="55.9453" rx="14.8402" ry="1.43615" fill="#DEE3E7"/>
<path d="M76.3268 71.8909C76.0409 71.8909 75.7583 71.8467 75.4792 71.7581C75.2 71.6696 74.9719 71.5471 74.7949 71.3905L75.377 70.2569C75.4996 70.3658 75.6392 70.4509 75.7958 70.5122C75.9592 70.5735 76.1192 70.6041 76.2758 70.6041C76.5004 70.6041 76.6774 70.5497 76.8068 70.4407C76.943 70.3386 77.0655 70.165 77.1745 69.9199L77.4604 69.2458L77.583 69.0722L79.554 64.3336H81.0859L78.6042 70.165C78.4272 70.6075 78.223 70.9548 77.9915 71.2067C77.7668 71.4586 77.5149 71.6356 77.2357 71.7377C76.9634 71.8398 76.6604 71.8909 76.3268 71.8909ZM77.2664 70.0424L74.8153 64.3336H76.4596L78.3591 68.9293L77.2664 70.0424Z" fill="#677683"/>
<path d="M71.9781 69.9097C71.5151 69.9097 71.11 69.8076 70.7628 69.6033C70.4155 69.3991 70.1432 69.0893 69.9458 68.674C69.7551 68.2518 69.6598 67.7208 69.6598 67.0808C69.6598 66.434 69.7517 65.9029 69.9356 65.4876C70.1194 65.0723 70.3849 64.7625 70.7321 64.5583C71.0794 64.354 71.4947 64.2519 71.9781 64.2519C72.4955 64.2519 72.9585 64.3711 73.367 64.6093C73.7823 64.8408 74.1091 65.1676 74.3474 65.5898C74.5925 66.0119 74.7151 66.5089 74.7151 67.0808C74.7151 67.6595 74.5925 68.1599 74.3474 68.582C74.1091 69.0042 73.7823 69.331 73.367 69.5625C72.9585 69.7939 72.4955 69.9097 71.9781 69.9097ZM68.7305 71.8092V64.3336H70.2521V65.457L70.2215 67.091L70.3236 68.7148V71.8092H68.7305ZM71.7023 68.6025C71.9679 68.6025 72.2028 68.5412 72.407 68.4186C72.6181 68.2961 72.7849 68.1225 72.9074 67.8978C73.0368 67.6663 73.1015 67.394 73.1015 67.0808C73.1015 66.7608 73.0368 66.4885 72.9074 66.2638C72.7849 66.0391 72.6181 65.8655 72.407 65.7429C72.2028 65.6204 71.9679 65.5591 71.7023 65.5591C71.4368 65.5591 71.1985 65.6204 70.9875 65.7429C70.7764 65.8655 70.6096 66.0391 70.487 66.2638C70.3645 66.4885 70.3032 66.7608 70.3032 67.0808C70.3032 67.394 70.3645 67.6663 70.487 67.8978C70.6096 68.1225 70.7764 68.2961 70.9875 68.4186C71.1985 68.5412 71.4368 68.6025 71.7023 68.6025Z" fill="#677683"/>
<path d="M64.6538 69.9097C64.0683 69.9097 63.5474 69.7871 63.0913 69.542C62.6419 69.2969 62.2845 68.9633 62.0189 68.5412C61.7602 68.1123 61.6309 67.6255 61.6309 67.0808C61.6309 66.5293 61.7602 66.0425 62.0189 65.6204C62.2845 65.1915 62.6419 64.8579 63.0913 64.6196C63.5474 64.3745 64.0683 64.2519 64.6538 64.2519C65.2325 64.2519 65.7499 64.3745 66.2061 64.6196C66.6623 64.8579 67.0197 65.1881 67.2784 65.6102C67.5371 66.0323 67.6665 66.5225 67.6665 67.0808C67.6665 67.6255 67.5371 68.1123 67.2784 68.5412C67.0197 68.9633 66.6623 69.2969 66.2061 69.542C65.7499 69.7871 65.2325 69.9097 64.6538 69.9097ZM64.6538 68.6025C64.9193 68.6025 65.1576 68.5412 65.3687 68.4186C65.5797 68.2961 65.7465 68.1225 65.8691 67.8978C65.9916 67.6663 66.0529 67.394 66.0529 67.0808C66.0529 66.7608 65.9916 66.4885 65.8691 66.2638C65.7465 66.0391 65.5797 65.8655 65.3687 65.7429C65.1576 65.6204 64.9193 65.5591 64.6538 65.5591C64.3883 65.5591 64.15 65.6204 63.9389 65.7429C63.7279 65.8655 63.5576 66.0391 63.4283 66.2638C63.3057 66.4885 63.2444 66.7608 63.2444 67.0808C63.2444 67.394 63.3057 67.6663 63.4283 67.8978C63.5576 68.1225 63.7279 68.2961 63.9389 68.4186C64.15 68.5412 64.3883 68.6025 64.6538 68.6025Z" fill="#677683"/>
<path d="M58.271 69.9505C57.7195 69.9505 57.2055 69.862 56.7289 69.685C56.2591 69.5012 55.8506 69.2425 55.5034 68.9088C55.1561 68.5752 54.8838 68.1837 54.6864 67.7344C54.4957 67.285 54.4004 66.7914 54.4004 66.2536C54.4004 65.7157 54.4957 65.2221 54.6864 64.7727C54.8838 64.3234 55.1561 63.9319 55.5034 63.5983C55.8574 63.2647 56.2693 63.0094 56.7391 62.8323C57.2089 62.6485 57.7229 62.5566 58.2812 62.5566C58.9007 62.5566 59.459 62.6655 59.956 62.8834C60.4599 63.0945 60.882 63.4077 61.2224 63.823L60.1603 64.8034C59.9152 64.5242 59.6429 64.3166 59.3433 64.1804C59.0437 64.0374 58.7169 63.9659 58.3629 63.9659C58.0293 63.9659 57.7229 64.0204 57.4437 64.1293C57.1646 64.2383 56.9229 64.3949 56.7187 64.5991C56.5144 64.8034 56.3544 65.0451 56.2387 65.3242C56.1297 65.6034 56.0753 65.9131 56.0753 66.2536C56.0753 66.594 56.1297 66.9038 56.2387 67.1829C56.3544 67.4621 56.5144 67.7038 56.7187 67.908C56.9229 68.1123 57.1646 68.2689 57.4437 68.3778C57.7229 68.4867 58.0293 68.5412 58.3629 68.5412C58.7169 68.5412 59.0437 68.4731 59.3433 68.3369C59.6429 68.194 59.9152 67.9795 60.1603 67.6935L61.2224 68.674C60.882 69.0893 60.4599 69.4059 59.956 69.6237C59.459 69.8416 58.8973 69.9505 58.271 69.9505Z" fill="#677683"/>
<path d="M49.6562 69.9097C49.0094 69.9097 48.5056 69.7463 48.1448 69.4195C47.7839 69.0858 47.6035 68.5922 47.6035 67.9386V63.1183H49.1967V67.9182C49.1967 68.1497 49.2579 68.3301 49.3805 68.4595C49.503 68.582 49.6699 68.6433 49.8809 68.6433C50.1328 68.6433 50.3473 68.5752 50.5243 68.439L50.9532 69.5624C50.7898 69.6782 50.5924 69.7667 50.3609 69.828C50.1362 69.8824 49.9013 69.9097 49.6562 69.9097ZM46.7559 65.6816V64.4561H50.5652V65.6816H46.7559Z" fill="#677683"/>
<path d="M42.8574 69.828V64.3336H44.3791V65.8859L44.1646 65.4366C44.328 65.0485 44.5902 64.7557 44.951 64.5583C45.3118 64.354 45.751 64.2519 46.2684 64.2519V65.7225C46.2003 65.7157 46.1391 65.7123 46.0846 65.7123C46.0301 65.7055 45.9723 65.7021 45.911 65.7021C45.4752 65.7021 45.1212 65.8281 44.8489 66.08C44.5834 66.3251 44.4506 66.7097 44.4506 67.234V69.828H42.8574Z" fill="#677683"/>
<path d="M38.7827 69.9097C38.1972 69.9097 37.6763 69.7871 37.2202 69.542C36.7708 69.2969 36.4134 68.9633 36.1478 68.5412C35.8891 68.1123 35.7598 67.6255 35.7598 67.0808C35.7598 66.5293 35.8891 66.0425 36.1478 65.6204C36.4134 65.1915 36.7708 64.8579 37.2202 64.6196C37.6763 64.3745 38.1972 64.2519 38.7827 64.2519C39.3614 64.2519 39.8788 64.3745 40.335 64.6196C40.7912 64.8579 41.1486 65.1881 41.4073 65.6102C41.666 66.0323 41.7954 66.5225 41.7954 67.0808C41.7954 67.6255 41.666 68.1123 41.4073 68.5412C41.1486 68.9633 40.7912 69.2969 40.335 69.542C39.8788 69.7871 39.3614 69.9097 38.7827 69.9097ZM38.7827 68.6025C39.0482 68.6025 39.2865 68.5412 39.4976 68.4186C39.7086 68.2961 39.8754 68.1225 39.998 67.8978C40.1205 67.6663 40.1818 67.394 40.1818 67.0808C40.1818 66.7608 40.1205 66.4885 39.998 66.2638C39.8754 66.0391 39.7086 65.8655 39.4976 65.7429C39.2865 65.6204 39.0482 65.5591 38.7827 65.5591C38.5172 65.5591 38.2789 65.6204 38.0678 65.7429C37.8567 65.8655 37.6865 66.0391 37.5572 66.2638C37.4346 66.4885 37.3734 66.7608 37.3734 67.0808C37.3734 67.394 37.4346 67.6663 37.5572 67.8978C37.6865 68.1225 37.8567 68.2961 38.0678 68.4186C38.2789 68.5412 38.5172 68.6025 38.7827 68.6025Z" fill="#677683"/>
<path d="M32.3628 69.9097C31.8999 69.9097 31.4948 69.8076 31.1475 69.6033C30.8003 69.3991 30.528 69.0893 30.3305 68.674C30.1399 68.2518 30.0446 67.7208 30.0446 67.0808C30.0446 66.434 30.1365 65.9029 30.3203 65.4876C30.5041 65.0723 30.7697 64.7625 31.1169 64.5583C31.4641 64.354 31.8794 64.2519 32.3628 64.2519C32.8803 64.2519 33.3432 64.3711 33.7517 64.6093C34.1671 64.8408 34.4939 65.1676 34.7322 65.5898C34.9773 66.0119 35.0998 66.5089 35.0998 67.0808C35.0998 67.6595 34.9773 68.1599 34.7322 68.582C34.4939 69.0042 34.1671 69.331 33.7517 69.5625C33.3432 69.7939 32.8803 69.9097 32.3628 69.9097ZM29.1152 71.8092V64.3336H30.6369V65.457L30.6063 67.091L30.7084 68.7148V71.8092H29.1152ZM32.0871 68.6025C32.3526 68.6025 32.5875 68.5412 32.7918 68.4186C33.0028 68.2961 33.1696 68.1225 33.2922 67.8978C33.4215 67.6663 33.4862 67.394 33.4862 67.0808C33.4862 66.7608 33.4215 66.4885 33.2922 66.2638C33.1696 66.0391 33.0028 65.8655 32.7918 65.7429C32.5875 65.6204 32.3526 65.5591 32.0871 65.5591C31.8216 65.5591 31.5833 65.6204 31.3722 65.7429C31.1612 65.8655 30.9944 66.0391 30.8718 66.2638C30.7492 66.4885 30.688 66.7608 30.688 67.0808C30.688 67.394 30.7492 67.6663 30.8718 67.8978C30.9944 68.1225 31.1612 68.2961 31.3722 68.4186C31.5833 68.5412 31.8216 68.6025 32.0871 68.6025Z" fill="#677683"/>
<path d="M25.5397 69.9097C25.0699 69.9097 24.6172 69.8552 24.1814 69.7463C23.7525 69.6305 23.4121 69.4876 23.1602 69.3174L23.6912 68.1735C23.9431 68.3301 24.2393 68.4595 24.5797 68.5616C24.9269 68.6569 25.2674 68.7046 25.601 68.7046C25.9686 68.7046 26.2273 68.6603 26.3771 68.5718C26.5337 68.4833 26.612 68.3608 26.612 68.2042C26.612 68.0748 26.5507 67.9795 26.4282 67.9182C26.3124 67.8501 26.1559 67.7991 25.9584 67.765C25.761 67.731 25.5431 67.697 25.3048 67.6629C25.0733 67.6289 24.8384 67.5846 24.6001 67.5301C24.3618 67.4689 24.144 67.3804 23.9465 67.2646C23.7491 67.1489 23.5891 66.9923 23.4665 66.7948C23.3508 66.5974 23.2929 66.3421 23.2929 66.0289C23.2929 65.6817 23.3916 65.3753 23.5891 65.1098C23.7933 64.8442 24.0861 64.6366 24.4674 64.4868C24.8486 64.3302 25.3048 64.2519 25.8359 64.2519C26.2103 64.2519 26.5916 64.2928 26.9797 64.3745C27.3677 64.4562 27.6911 64.5753 27.9499 64.7319L27.4188 65.8655C27.1533 65.7089 26.8843 65.6034 26.612 65.5489C26.3465 65.4876 26.0878 65.457 25.8359 65.457C25.4818 65.457 25.2231 65.5047 25.0597 65.6C24.8963 65.6953 24.8146 65.8178 24.8146 65.9676C24.8146 66.1038 24.8725 66.2059 24.9882 66.274C25.1108 66.3421 25.2708 66.3966 25.4682 66.4374C25.6656 66.4783 25.8801 66.5157 26.1116 66.5497C26.3499 66.577 26.5882 66.6212 26.8265 66.6825C27.0648 66.7438 27.2792 66.8323 27.4699 66.948C27.6673 67.057 27.8273 67.2102 27.9499 67.4076C28.0724 67.5982 28.1337 67.8501 28.1337 68.1633C28.1337 68.5037 28.0316 68.8067 27.8273 69.0722C27.6231 69.331 27.3269 69.5352 26.9388 69.685C26.5575 69.8348 26.0912 69.9097 25.5397 69.9097Z" fill="#677683"/>
<path d="M20.112 69.9097C19.6422 69.9097 19.1894 69.8552 18.7537 69.7463C18.3248 69.6305 17.9843 69.4876 17.7324 69.3174L18.2635 68.1735C18.5154 68.3301 18.8116 68.4595 19.152 68.5616C19.4992 68.6569 19.8396 68.7046 20.1732 68.7046C20.5409 68.7046 20.7996 68.6603 20.9494 68.5718C21.106 68.4833 21.1843 68.3608 21.1843 68.2042C21.1843 68.0748 21.123 67.9795 21.0005 67.9182C20.8847 67.8501 20.7281 67.7991 20.5307 67.765C20.3332 67.731 20.1154 67.697 19.8771 67.6629C19.6456 67.6289 19.4107 67.5846 19.1724 67.5301C18.9341 67.4689 18.7162 67.3804 18.5188 67.2646C18.3213 67.1489 18.1614 66.9923 18.0388 66.7948C17.9231 66.5974 17.8652 66.3421 17.8652 66.0289C17.8652 65.6817 17.9639 65.3753 18.1613 65.1098C18.3656 64.8442 18.6584 64.6366 19.0396 64.4868C19.4209 64.3302 19.8771 64.2519 20.4081 64.2519C20.7826 64.2519 21.1639 64.2928 21.5519 64.3745C21.94 64.4562 22.2634 64.5753 22.5221 64.7319L21.9911 65.8655C21.7255 65.7089 21.4566 65.6034 21.1843 65.5489C20.9187 65.4876 20.66 65.457 20.4081 65.457C20.0541 65.457 19.7954 65.5047 19.632 65.6C19.4686 65.6953 19.3869 65.8178 19.3869 65.9676C19.3869 66.1038 19.4447 66.2059 19.5605 66.274C19.683 66.3421 19.843 66.3966 20.0405 66.4374C20.2379 66.4783 20.4524 66.5157 20.6839 66.5497C20.9222 66.577 21.1604 66.6212 21.3987 66.6825C21.637 66.7438 21.8515 66.8323 22.0421 66.948C22.2396 67.057 22.3996 67.2102 22.5221 67.4076C22.6447 67.5982 22.706 67.8501 22.706 68.1633C22.706 68.5037 22.6038 68.8067 22.3996 69.0722C22.1953 69.331 21.8992 69.5352 21.5111 69.685C21.1298 69.8348 20.6634 69.9097 20.112 69.9097Z" fill="#677683"/>
<path d="M15.3331 69.828V68.7557L15.2309 68.5208V66.6008C15.2309 66.2604 15.1254 65.9949 14.9143 65.8042C14.7101 65.6136 14.3935 65.5183 13.9646 65.5183C13.6718 65.5183 13.3825 65.5659 13.0965 65.6612C12.8174 65.7498 12.5791 65.8723 12.3816 66.0289L11.8097 64.9157C12.1093 64.7047 12.4701 64.5413 12.8923 64.4255C13.3144 64.3098 13.7433 64.2519 14.179 64.2519C15.0165 64.2519 15.6667 64.4494 16.1296 64.8442C16.5926 65.2391 16.8241 65.8553 16.8241 66.6927V69.828H15.3331ZM13.6582 69.9097C13.2293 69.9097 12.8616 69.8382 12.5552 69.6952C12.2489 69.5454 12.014 69.3446 11.8506 69.0927C11.6872 68.8408 11.6055 68.5582 11.6055 68.245C11.6055 67.9182 11.6838 67.6323 11.8404 67.3872C12.0038 67.1421 12.2591 66.9514 12.6063 66.8153C12.9535 66.6723 13.4063 66.6008 13.9646 66.6008H15.425V67.5301H14.1382C13.7637 67.5301 13.505 67.5914 13.362 67.714C13.2259 67.8365 13.1578 67.9897 13.1578 68.1735C13.1578 68.3778 13.2361 68.5412 13.3927 68.6637C13.5561 68.7795 13.7773 68.8374 14.0565 68.8374C14.322 68.8374 14.5603 68.7761 14.7714 68.6535C14.9824 68.5242 15.1356 68.3369 15.2309 68.0918L15.476 68.8271C15.3603 69.1812 15.1492 69.4501 14.8429 69.6339C14.5365 69.8178 14.1416 69.9097 13.6582 69.9097Z" fill="#677683"/>
<path d="M4.74414 69.828V62.6792H7.83856C8.47854 62.6792 9.03003 62.7847 9.493 62.9958C9.95597 63.2 10.3134 63.4962 10.5653 63.8843C10.8172 64.2723 10.9432 64.7353 10.9432 65.2732C10.9432 65.8042 10.8172 66.2638 10.5653 66.6519C10.3134 67.0399 9.95597 67.3395 9.493 67.5506C9.03003 67.7548 8.47854 67.857 7.83856 67.857H5.66328L6.39858 67.1114V69.828H4.74414ZM6.39858 67.2953L5.66328 66.5089H7.74664C8.25727 66.5089 8.63854 66.4 8.89045 66.1821C9.14236 65.9642 9.26832 65.6612 9.26832 65.2732C9.26832 64.8783 9.14236 64.5719 8.89045 64.354C8.63854 64.1362 8.25727 64.0272 7.74664 64.0272H5.66328L6.39858 63.2409V67.2953Z" fill="#677683"/>
<path opacity="0.5" d="M84.0291 80.712H83.5645C83.7721 80.3512 83.9236 79.975 84.0189 79.5835C84.1142 79.1887 84.1619 78.7682 84.1619 78.3223C84.1619 77.8763 84.1142 77.4576 84.0189 77.0661C83.9236 76.6713 83.7721 76.2934 83.5645 75.9325H84.0291C84.23 76.2355 84.3815 76.593 84.4836 77.0049C84.5891 77.4134 84.6419 77.8525 84.6419 78.3223C84.6419 78.7921 84.5891 79.2312 84.4836 79.6397C84.3815 80.0448 84.23 80.4023 84.0291 80.712Z" fill="#677683"/>
<path opacity="0.5" d="M80.123 79.7214V76.147H81.7264C82.1383 76.147 82.4549 76.2304 82.6762 76.3972C82.8975 76.5606 83.0081 76.7853 83.0081 77.0713C83.0081 77.2653 82.9639 77.4287 82.8753 77.5615C82.7902 77.6942 82.6745 77.7964 82.5281 77.8678C82.3817 77.9393 82.2234 77.9751 82.0532 77.9751L82.1451 77.8219C82.3494 77.8219 82.5298 77.8576 82.6864 77.9291C82.843 78.0006 82.9673 78.1061 83.0592 78.2457C83.1511 78.3819 83.197 78.5521 83.197 78.7563C83.197 79.0627 83.0813 79.301 82.8498 79.4712C82.6217 79.638 82.2813 79.7214 81.8285 79.7214H80.123ZM80.6337 79.3078H81.8081C82.0907 79.3078 82.3068 79.2602 82.4566 79.1648C82.6064 79.0695 82.6813 78.9197 82.6813 78.7155C82.6813 78.5078 82.6064 78.3563 82.4566 78.261C82.3068 78.1657 82.0907 78.118 81.8081 78.118H80.5877V77.7044H81.6805C81.9392 77.7044 82.14 77.6568 82.283 77.5615C82.426 77.4661 82.4975 77.3232 82.4975 77.1325C82.4975 76.9419 82.426 76.7989 82.283 76.7036C82.14 76.6083 81.9392 76.5606 81.6805 76.5606H80.6337V79.3078Z" fill="#677683"/>
<path opacity="0.5" d="M75.2969 79.7214V76.147H75.7156L77.319 78.8482H77.0943L78.6772 76.147H79.096L79.1011 79.7214H78.6109L78.6058 76.9181H78.7232L77.3139 79.2874H77.079L75.6594 76.9181H75.7871V79.7214H75.2969Z" fill="#677683"/>
<path opacity="0.5" d="M70.2715 78.8431V78.4857L72.0995 76.147H72.651L70.8383 78.4857L70.5779 78.404H73.4323V78.8431H70.2715ZM72.2578 79.7214V78.8431L72.2732 78.404V77.6278H72.7531V79.7214H72.2578Z" fill="#677683"/>
<path opacity="0.5" d="M66.0586 79.7214L67.2228 78.21L67.2177 78.4602L66.1097 77.0151H66.656L67.5037 78.1283H67.2943L68.142 77.0151H68.6781L67.5547 78.4704L67.5598 78.21L68.7343 79.7214H68.1777L67.2841 78.5368L67.4833 78.5674L66.605 79.7214H66.0586Z" fill="#677683"/>
<path opacity="0.5" d="M65.1354 79.7214V79.1495L65.1099 79.0423V78.067C65.1099 77.8593 65.0486 77.6993 64.9261 77.587C64.8069 77.4712 64.6265 77.4134 64.3848 77.4134C64.2248 77.4134 64.0682 77.4406 63.915 77.4951C63.7618 77.5461 63.6325 77.6159 63.5269 77.7044L63.3227 77.3368C63.4623 77.2244 63.6291 77.1393 63.8231 77.0815C64.0205 77.0202 64.2265 76.9895 64.441 76.9895C64.812 76.9895 65.098 77.0798 65.2988 77.2602C65.4997 77.4406 65.6001 77.7163 65.6001 78.0874V79.7214H65.1354ZM64.2469 79.7521C64.0461 79.7521 63.8691 79.718 63.7159 79.6499C63.5661 79.5818 63.4503 79.4882 63.3686 79.3691C63.2869 79.2465 63.2461 79.1087 63.2461 78.9555C63.2461 78.8091 63.2801 78.6763 63.3482 78.5572C63.4197 78.438 63.5337 78.3427 63.6903 78.2712C63.8503 78.1997 64.0648 78.164 64.3337 78.164H65.1916V78.5163H64.3542C64.1091 78.5163 63.944 78.5572 63.8588 78.6389C63.7737 78.7206 63.7312 78.8193 63.7312 78.935C63.7312 79.0678 63.784 79.175 63.8895 79.2567C63.995 79.335 64.1414 79.3742 64.3286 79.3742C64.5125 79.3742 64.6725 79.3333 64.8086 79.2516C64.9482 79.1699 65.0486 79.0508 65.1099 78.8942L65.2069 79.2312C65.1422 79.3912 65.0282 79.5189 64.8648 79.6142C64.7014 79.7061 64.4954 79.7521 64.2469 79.7521Z" fill="#677683"/>
<path opacity="0.5" d="M61.4909 76.9895C61.7088 76.9895 61.9011 77.0321 62.068 77.1172C62.2348 77.2023 62.3641 77.3317 62.456 77.5053C62.5514 77.6789 62.599 77.8985 62.599 78.164V79.7214H62.1088V78.2202C62.1088 77.958 62.0475 77.7606 61.925 77.6278C61.8024 77.4951 61.6305 77.4287 61.4092 77.4287C61.2458 77.4287 61.1029 77.4627 60.9803 77.5308C60.8578 77.5989 60.7624 77.6993 60.6944 77.8321C60.6297 77.9649 60.5973 78.13 60.5973 78.3274V79.7214H60.1071V78.2202C60.1071 77.958 60.0459 77.7606 59.9233 77.6278C59.8042 77.4951 59.6323 77.4287 59.4076 77.4287C59.2476 77.4287 59.1063 77.4627 58.9838 77.5308C58.8612 77.5989 58.7659 77.6993 58.6978 77.8321C58.6297 77.9649 58.5957 78.13 58.5957 78.3274V79.7214H58.1055V77.0151H58.5752V77.7351L58.4987 77.5512C58.5838 77.3742 58.7148 77.2364 58.8918 77.1376C59.0689 77.0389 59.2748 76.9895 59.5097 76.9895C59.7684 76.9895 59.9914 77.0542 60.1786 77.1836C60.3659 77.3095 60.4884 77.5019 60.5463 77.7606L60.3471 77.6789C60.4288 77.4712 60.5718 77.3044 60.7761 77.1785C60.9803 77.0525 61.2186 76.9895 61.4909 76.9895Z" fill="#677683"/>
<path opacity="0.5" d="M57.0686 80.712C56.8745 80.4023 56.7248 80.0448 56.6192 79.6397C56.5137 79.2312 56.4609 78.7921 56.4609 78.3223C56.4609 77.8525 56.5137 77.4134 56.6192 77.0049C56.7248 76.593 56.8745 76.2355 57.0686 75.9325H57.5333C57.329 76.2934 57.1792 76.6713 57.0839 77.0661C56.9886 77.4576 56.9409 77.8763 56.9409 78.3223C56.9409 78.7682 56.9886 79.1887 57.0839 79.5835C57.1792 79.975 57.329 80.3512 57.5333 80.712H57.0686Z" fill="#677683"/>
<path opacity="0.5" d="M53.2483 79.7521C52.9589 79.7521 52.7036 79.6925 52.4823 79.5733C52.2645 79.4542 52.0942 79.2908 51.9717 79.0831C51.8525 78.8755 51.793 78.6372 51.793 78.3682C51.793 78.0993 51.8508 77.861 51.9666 77.6534C52.0857 77.4457 52.2474 77.284 52.4517 77.1683C52.6593 77.0491 52.8925 76.9895 53.1512 76.9895C53.4134 76.9895 53.6449 77.0474 53.8457 77.1632C54.0465 77.2789 54.2031 77.4423 54.3155 77.6534C54.4312 77.861 54.4891 78.1044 54.4891 78.3836C54.4891 78.404 54.4874 78.4278 54.484 78.4551C54.484 78.4823 54.4823 78.5078 54.4789 78.5316H52.1759V78.1793H54.2236L54.0244 78.3019C54.0278 78.1283 53.9921 77.9734 53.9172 77.8372C53.8423 77.701 53.7385 77.5955 53.6057 77.5206C53.4763 77.4423 53.3249 77.4032 53.1512 77.4032C52.981 77.4032 52.8295 77.4423 52.6968 77.5206C52.564 77.5955 52.4602 77.7027 52.3853 77.8423C52.3104 77.9785 52.273 78.1351 52.273 78.3121V78.3938C52.273 78.5742 52.3138 78.7359 52.3955 78.8789C52.4806 79.0184 52.5981 79.1274 52.7478 79.2057C52.8976 79.284 53.0695 79.3231 53.2636 79.3231C53.4236 79.3231 53.5683 79.2959 53.6976 79.2414C53.8304 79.187 53.9461 79.1053 54.0448 78.9963L54.3155 79.3129C54.1929 79.4559 54.0397 79.5648 53.8559 79.6397C53.6755 79.7146 53.4729 79.7521 53.2483 79.7521Z" fill="#677683"/>
<path opacity="0.5" d="M49.7532 80.7427C49.5047 80.7427 49.263 80.7069 49.0281 80.6354C48.7966 80.5674 48.6077 80.4686 48.4613 80.3393L48.6962 79.9614C48.8222 80.0703 48.9771 80.1555 49.1609 80.2167C49.3447 80.2814 49.5371 80.3137 49.7379 80.3137C50.0579 80.3137 50.2928 80.2389 50.4426 80.0891C50.5924 79.9393 50.6673 79.7112 50.6673 79.4048V78.8329L50.7183 78.2968L50.6928 77.7555V77.0151H51.1575V79.3538C51.1575 79.8303 51.0383 80.181 50.8 80.4057C50.5617 80.6303 50.2128 80.7427 49.7532 80.7427ZM49.692 79.6091C49.4298 79.6091 49.1949 79.5546 48.9873 79.4457C48.783 79.3333 48.6196 79.1784 48.4971 78.981C48.3779 78.7836 48.3184 78.5555 48.3184 78.2968C48.3184 78.0346 48.3779 77.8066 48.4971 77.6125C48.6196 77.4151 48.783 77.2619 48.9873 77.1529C49.1949 77.044 49.4298 76.9895 49.692 76.9895C49.9234 76.9895 50.1345 77.0372 50.3251 77.1325C50.5158 77.2244 50.6673 77.3674 50.7796 77.5615C50.8953 77.7555 50.9532 78.0006 50.9532 78.2968C50.9532 78.5895 50.8953 78.8329 50.7796 79.027C50.6673 79.221 50.5158 79.3674 50.3251 79.4661C50.1345 79.5614 49.9234 79.6091 49.692 79.6091ZM49.7481 79.1801C49.9285 79.1801 50.0885 79.1427 50.2281 79.0678C50.3677 78.9929 50.4766 78.8891 50.5549 78.7563C50.6366 78.6236 50.6775 78.4704 50.6775 78.2968C50.6775 78.1231 50.6366 77.97 50.5549 77.8372C50.4766 77.7044 50.3677 77.6023 50.2281 77.5308C50.0885 77.4559 49.9285 77.4185 49.7481 77.4185C49.5677 77.4185 49.406 77.4559 49.263 77.5308C49.1235 77.6023 49.0128 77.7044 48.9311 77.8372C48.8528 77.97 48.8137 78.1231 48.8137 78.2968C48.8137 78.4704 48.8528 78.6236 48.9311 78.7563C49.0128 78.8891 49.1235 78.9929 49.263 79.0678C49.406 79.1427 49.5677 79.1801 49.7481 79.1801Z" fill="#677683"/>
<path opacity="0.5" d="M47.2468 79.7214V79.1495L47.2212 79.0423V78.067C47.2212 77.8593 47.1599 77.6993 47.0374 77.587C46.9182 77.4712 46.7378 77.4134 46.4961 77.4134C46.3361 77.4134 46.1795 77.4406 46.0263 77.4951C45.8732 77.5461 45.7438 77.6159 45.6383 77.7044L45.434 77.3368C45.5736 77.2244 45.7404 77.1393 45.9344 77.0815C46.1319 77.0202 46.3378 76.9895 46.5523 76.9895C46.9234 76.9895 47.2093 77.0798 47.4101 77.2602C47.611 77.4406 47.7114 77.7163 47.7114 78.0874V79.7214H47.2468ZM46.3583 79.7521C46.1574 79.7521 45.9804 79.718 45.8272 79.6499C45.6774 79.5818 45.5617 79.4882 45.48 79.3691C45.3983 79.2465 45.3574 79.1087 45.3574 78.9555C45.3574 78.8091 45.3915 78.6763 45.4595 78.5572C45.531 78.438 45.6451 78.3427 45.8017 78.2712C45.9617 78.1997 46.1761 78.164 46.4451 78.164H47.3029V78.5163H46.4655C46.2204 78.5163 46.0553 78.5572 45.9702 78.6389C45.8851 78.7206 45.8425 78.8193 45.8425 78.935C45.8425 79.0678 45.8953 79.175 46.0008 79.2567C46.1063 79.335 46.2527 79.3742 46.44 79.3742C46.6238 79.3742 46.7838 79.3333 46.9199 79.2516C47.0595 79.1699 47.1599 79.0508 47.2212 78.8942L47.3182 79.2312C47.2536 79.3912 47.1395 79.5189 46.9761 79.6142C46.8127 79.7061 46.6068 79.7521 46.3583 79.7521Z" fill="#677683"/>
<path opacity="0.5" d="M43.6081 76.9895C43.826 76.9895 44.0183 77.0321 44.1851 77.1172C44.3519 77.2023 44.4813 77.3317 44.5732 77.5053C44.6685 77.6789 44.7162 77.8985 44.7162 78.164V79.7214H44.226V78.2202C44.226 77.958 44.1647 77.7606 44.0422 77.6278C43.9196 77.4951 43.7477 77.4287 43.5264 77.4287C43.363 77.4287 43.2201 77.4627 43.0975 77.5308C42.975 77.5989 42.8796 77.6993 42.8115 77.8321C42.7469 77.9649 42.7145 78.13 42.7145 78.3274V79.7214H42.2243V78.2202C42.2243 77.958 42.1631 77.7606 42.0405 77.6278C41.9214 77.4951 41.7494 77.4287 41.5248 77.4287C41.3648 77.4287 41.2235 77.4627 41.1009 77.5308C40.9784 77.5989 40.8831 77.6993 40.815 77.8321C40.7469 77.9649 40.7129 78.13 40.7129 78.3274V79.7214H40.2227V77.0151H40.6924V77.7351L40.6158 77.5512C40.7009 77.3742 40.832 77.2364 41.009 77.1376C41.186 77.0389 41.392 76.9895 41.6269 76.9895C41.8856 76.9895 42.1086 77.0542 42.2958 77.1836C42.483 77.3095 42.6056 77.5019 42.6635 77.7606L42.4643 77.6789C42.546 77.4712 42.689 77.3044 42.8933 77.1785C43.0975 77.0525 43.3358 76.9895 43.6081 76.9895Z" fill="#677683"/>
<path opacity="0.5" d="M38.8485 79.7214V77.0151H39.3387V79.7214H38.8485ZM39.0936 76.4942C38.9983 76.4942 38.9183 76.4636 38.8536 76.4023C38.7924 76.3411 38.7617 76.2662 38.7617 76.1777C38.7617 76.0857 38.7924 76.0091 38.8536 75.9479C38.9183 75.8866 38.9983 75.856 39.0936 75.856C39.1889 75.856 39.2672 75.8866 39.3285 75.9479C39.3932 76.0057 39.4255 76.0789 39.4255 76.1674C39.4255 76.2594 39.3949 76.3377 39.3336 76.4023C39.2724 76.4636 39.1924 76.4942 39.0936 76.4942Z" fill="#677683"/>
<path opacity="0.5" d="M35.4844 79.7214V77.0151H35.9542V77.7504L35.9082 77.5666C35.9831 77.3793 36.109 77.2364 36.2861 77.1376C36.4631 77.0389 36.6809 76.9895 36.9397 76.9895V77.4644C36.9192 77.461 36.8988 77.4593 36.8784 77.4593C36.8614 77.4593 36.8444 77.4593 36.8273 77.4593C36.5652 77.4593 36.3576 77.5376 36.2044 77.6942C36.0512 77.8508 35.9746 78.0772 35.9746 78.3734V79.7214H35.4844Z" fill="#677683"/>
<path opacity="0.5" d="M33.2209 79.7521C32.9894 79.7521 32.7851 79.7095 32.6081 79.6244C32.4345 79.5393 32.2983 79.4099 32.1996 79.2363C32.1043 79.0593 32.0566 78.838 32.0566 78.5725V77.0151H32.5468V78.5163C32.5468 78.7819 32.6098 78.981 32.7358 79.1138C32.8651 79.2465 33.0456 79.3129 33.277 79.3129C33.4473 79.3129 33.5953 79.2789 33.7213 79.2108C33.8472 79.1393 33.9443 79.0372 34.0124 78.9044C34.0804 78.7683 34.1145 78.6049 34.1145 78.4142V77.0151H34.6047V79.7214H34.14V78.9912L34.2166 79.1853C34.1281 79.3657 33.9953 79.5053 33.8183 79.604C33.6413 79.7027 33.4421 79.7521 33.2209 79.7521Z" fill="#677683"/>
<path opacity="0.5" d="M30.05 79.7521C29.7776 79.7521 29.5359 79.6925 29.3249 79.5733C29.1138 79.4542 28.947 79.2908 28.8245 79.0831C28.7019 78.8721 28.6406 78.6338 28.6406 78.3682C28.6406 78.0993 28.7019 77.861 28.8245 77.6534C28.947 77.4457 29.1138 77.284 29.3249 77.1683C29.5359 77.0491 29.7776 76.9895 30.05 76.9895C30.3189 76.9895 30.5589 77.0491 30.77 77.1683C30.9844 77.284 31.1512 77.4457 31.2704 77.6534C31.3929 77.8576 31.4542 78.0959 31.4542 78.3682C31.4542 78.6372 31.3929 78.8755 31.2704 79.0831C31.1512 79.2908 30.9844 79.4542 30.77 79.5733C30.5589 79.6925 30.3189 79.7521 30.05 79.7521ZM30.05 79.3231C30.2236 79.3231 30.3785 79.284 30.5146 79.2057C30.6542 79.1274 30.7631 79.0167 30.8414 78.8738C30.9197 78.7274 30.9589 78.5589 30.9589 78.3682C30.9589 78.1742 30.9197 78.0074 30.8414 77.8678C30.7631 77.7249 30.6542 77.6142 30.5146 77.5359C30.3785 77.4576 30.2236 77.4185 30.05 77.4185C29.8763 77.4185 29.7215 77.4576 29.5853 77.5359C29.4491 77.6142 29.3402 77.7249 29.2585 77.8678C29.1768 78.0074 29.1359 78.1742 29.1359 78.3682C29.1359 78.5589 29.1768 78.7274 29.2585 78.8738C29.3402 79.0167 29.4491 79.1274 29.5853 79.2057C29.7215 79.284 29.8763 79.3231 30.05 79.3231Z" fill="#677683"/>
<path opacity="0.5" d="M26.2804 80.7427C26.151 80.7427 26.0251 80.7206 25.9025 80.6763C25.78 80.6355 25.6744 80.5742 25.5859 80.4925L25.7953 80.1248C25.8634 80.1895 25.9383 80.2389 26.02 80.2729C26.1017 80.3069 26.1885 80.324 26.2804 80.324C26.3995 80.324 26.4983 80.2933 26.5766 80.2321C26.6549 80.1708 26.728 80.0618 26.7961 79.9053L26.9646 79.5325L27.0157 79.4712L28.0778 77.0151H28.5578L27.2455 79.9921C27.1672 80.1827 27.0787 80.3325 26.98 80.4414C26.8846 80.5503 26.7791 80.6269 26.6634 80.6712C26.5476 80.7189 26.42 80.7427 26.2804 80.7427ZM26.9238 79.8082L25.6881 77.0151H26.1987L27.2506 79.4253L26.9238 79.8082Z" fill="#677683"/>
<path opacity="0.5" d="M22.5326 79.752C22.2704 79.752 22.0355 79.6942 21.8279 79.5784C21.6236 79.4627 21.4619 79.301 21.3428 79.0933C21.2236 78.8857 21.1641 78.644 21.1641 78.3682C21.1641 78.0925 21.2236 77.8525 21.3428 77.6483C21.4619 77.4406 21.6236 77.2789 21.8279 77.1632C22.0355 77.0474 22.2704 76.9895 22.5326 76.9895C22.7606 76.9895 22.9666 77.0406 23.1504 77.1427C23.3342 77.2449 23.4806 77.398 23.5896 77.6023C23.7019 77.8066 23.7581 78.0619 23.7581 78.3682C23.7581 78.6746 23.7036 78.9299 23.5947 79.1342C23.4891 79.3384 23.3445 79.4933 23.1606 79.5989C22.9768 79.701 22.7674 79.752 22.5326 79.752ZM22.5734 79.3231C22.7436 79.3231 22.8968 79.284 23.033 79.2057C23.1725 79.1274 23.2815 79.0167 23.3598 78.8738C23.4415 78.7274 23.4823 78.5589 23.4823 78.3682C23.4823 78.1742 23.4415 78.0074 23.3598 77.8678C23.2815 77.7249 23.1725 77.6142 23.033 77.5359C22.8968 77.4576 22.7436 77.4185 22.5734 77.4185C22.3998 77.4185 22.2449 77.4576 22.1087 77.5359C21.9726 77.6142 21.8636 77.7249 21.7819 77.8678C21.7002 78.0074 21.6594 78.1742 21.6594 78.3682C21.6594 78.5589 21.7002 78.7274 21.7819 78.8738C21.8636 79.0167 21.9726 79.1274 22.1087 79.2057C22.2449 79.284 22.3998 79.3231 22.5734 79.3231ZM23.4976 79.7214V78.9912L23.5283 78.3631L23.4772 77.7351V75.9325H23.9674V79.7214H23.4976Z" fill="#677683"/>
<path opacity="0.5" d="M20.0925 79.7214V79.1495L20.0669 79.0423V78.067C20.0669 77.8593 20.0056 77.6993 19.8831 77.587C19.7639 77.4712 19.5835 77.4134 19.3418 77.4134C19.1818 77.4134 19.0252 77.4406 18.872 77.4951C18.7189 77.5461 18.5895 77.6159 18.484 77.7044L18.2797 77.3368C18.4193 77.2244 18.5861 77.1393 18.7801 77.0815C18.9776 77.0202 19.1835 76.9895 19.398 76.9895C19.7691 76.9895 20.055 77.0798 20.2559 77.2602C20.4567 77.4406 20.5571 77.7163 20.5571 78.0874V79.7214H20.0925ZM19.204 79.7521C19.0031 79.7521 18.8261 79.718 18.6729 79.6499C18.5231 79.5818 18.4074 79.4882 18.3257 79.3691C18.244 79.2465 18.2031 79.1087 18.2031 78.9555C18.2031 78.8091 18.2372 78.6763 18.3053 78.5572C18.3767 78.438 18.4908 78.3427 18.6474 78.2712C18.8074 78.1997 19.0218 78.164 19.2908 78.164H20.1486V78.5163H19.3112C19.0661 78.5163 18.901 78.5572 18.8159 78.6389C18.7308 78.7206 18.6882 78.8193 18.6882 78.935C18.6882 79.0678 18.741 79.175 18.8465 79.2567C18.952 79.335 19.0984 79.3742 19.2857 79.3742C19.4695 79.3742 19.6295 79.3333 19.7657 79.2516C19.9052 79.1699 20.0056 79.0508 20.0669 78.8942L20.1639 79.2312C20.0993 79.3912 19.9852 79.5189 19.8218 79.6142C19.6584 79.7061 19.4525 79.7521 19.204 79.7521Z" fill="#677683"/>
<path opacity="0.5" d="M16.4054 79.7521C16.1331 79.7521 15.8914 79.6925 15.6803 79.5733C15.4693 79.4542 15.3025 79.2908 15.1799 79.0831C15.0574 78.8721 14.9961 78.6338 14.9961 78.3682C14.9961 78.0993 15.0574 77.861 15.1799 77.6534C15.3025 77.4457 15.4693 77.284 15.6803 77.1683C15.8914 77.0491 16.1331 76.9895 16.4054 76.9895C16.6744 76.9895 16.9144 77.0491 17.1254 77.1683C17.3399 77.284 17.5067 77.4457 17.6258 77.6534C17.7484 77.8576 17.8097 78.0959 17.8097 78.3682C17.8097 78.6372 17.7484 78.8755 17.6258 79.0831C17.5067 79.2908 17.3399 79.4542 17.1254 79.5733C16.9144 79.6925 16.6744 79.7521 16.4054 79.7521ZM16.4054 79.3231C16.579 79.3231 16.7339 79.284 16.8701 79.2057C17.0097 79.1274 17.1186 79.0167 17.1969 78.8738C17.2752 78.7274 17.3144 78.5589 17.3144 78.3682C17.3144 78.1742 17.2752 78.0074 17.1969 77.8678C17.1186 77.7249 17.0097 77.6142 16.8701 77.5359C16.7339 77.4576 16.579 77.4185 16.4054 77.4185C16.2318 77.4185 16.0769 77.4576 15.9408 77.5359C15.8046 77.6142 15.6957 77.7249 15.614 77.8678C15.5323 78.0074 15.4914 78.1742 15.4914 78.3682C15.4914 78.5589 15.5323 78.7274 15.614 78.8738C15.6957 79.0167 15.8046 79.1274 15.9408 79.2057C16.0769 79.284 16.2318 79.3231 16.4054 79.3231Z" fill="#677683"/>
<path opacity="0.5" d="M13.873 79.7214V75.9325H14.3633V79.7214H13.873Z" fill="#677683"/>
<path opacity="0.5" d="M11.8782 79.7521C11.6536 79.7521 11.4476 79.701 11.2604 79.5989C11.0765 79.4933 10.9285 79.3384 10.8161 79.1342C10.7072 78.9299 10.6527 78.6746 10.6527 78.3682C10.6527 78.0619 10.7055 77.8066 10.811 77.6023C10.9199 77.3981 11.0663 77.2449 11.2502 77.1427C11.4374 77.0406 11.6467 76.9895 11.8782 76.9895C12.1438 76.9895 12.3786 77.0474 12.5829 77.1632C12.7871 77.2789 12.9488 77.4406 13.068 77.6483C13.1871 77.8525 13.2467 78.0925 13.2467 78.3682C13.2467 78.644 13.1871 78.8857 13.068 79.0933C12.9488 79.301 12.7871 79.4627 12.5829 79.5784C12.3786 79.6942 12.1438 79.7521 11.8782 79.7521ZM10.4434 80.712V77.0151H10.9131V77.7453L10.8825 78.3734L10.9336 79.0014V80.712H10.4434ZM11.8374 79.3231C12.011 79.3231 12.1659 79.284 12.302 79.2057C12.4416 79.1274 12.5506 79.0167 12.6289 78.8738C12.7106 78.7274 12.7514 78.5589 12.7514 78.3682C12.7514 78.1742 12.7106 78.0074 12.6289 77.8678C12.5506 77.7249 12.4416 77.6142 12.302 77.5359C12.1659 77.4576 12.011 77.4185 11.8374 77.4185C11.6672 77.4185 11.5123 77.4576 11.3727 77.5359C11.2365 77.6142 11.1276 77.7249 11.0459 77.8678C10.9676 78.0074 10.9285 78.1742 10.9285 78.3682C10.9285 78.5589 10.9676 78.7274 11.0459 78.8738C11.1276 79.0167 11.2365 79.1274 11.3727 79.2057C11.5123 79.284 11.6672 79.3231 11.8374 79.3231Z" fill="#677683"/>
<path opacity="0.5" d="M8.17791 79.7521C7.94642 79.7521 7.74217 79.7095 7.56515 79.6244C7.39154 79.5393 7.25537 79.4099 7.15665 79.2363C7.06133 79.0593 7.01367 78.838 7.01367 78.5725V77.0151H7.50388V78.5163C7.50388 78.7819 7.56685 78.981 7.69281 79.1138C7.82217 79.2465 8.00259 79.3129 8.23408 79.3129C8.40429 79.3129 8.55237 79.2789 8.67832 79.2108C8.80428 79.1393 8.9013 79.0372 8.96938 78.9044C9.03747 78.7683 9.07151 78.6049 9.07151 78.4142V77.0151H9.56171V79.7214H9.09704V78.9912L9.17364 79.1853C9.08513 79.3657 8.95236 79.5053 8.77534 79.604C8.59833 79.7027 8.39918 79.7521 8.17791 79.7521Z" fill="#677683"/>
<path opacity="0.5" d="M3.68668 79.7521C3.41435 79.7521 3.17265 79.6925 2.96159 79.5733C2.75053 79.4542 2.58372 79.2908 2.46117 79.0831C2.33862 78.8721 2.27734 78.6338 2.27734 78.3682C2.27734 78.0993 2.33862 77.861 2.46117 77.6534C2.58372 77.4457 2.75053 77.284 2.96159 77.1683C3.17265 77.0491 3.41435 76.9895 3.68668 76.9895C3.95561 76.9895 4.19561 77.0491 4.40667 77.1683C4.62113 77.284 4.78794 77.4457 4.90709 77.6534C5.02964 77.8576 5.09091 78.0959 5.09091 78.3682C5.09091 78.6372 5.02964 78.8755 4.90709 79.0831C4.78794 79.2908 4.62113 79.4542 4.40667 79.5733C4.19561 79.6925 3.95561 79.7521 3.68668 79.7521ZM3.68668 79.3231C3.8603 79.3231 4.01519 79.284 4.15135 79.2057C4.29093 79.1274 4.39986 79.0167 4.47816 78.8738C4.55645 78.7274 4.5956 78.5589 4.5956 78.3682C4.5956 78.1742 4.55645 78.0074 4.47816 77.8678C4.39986 77.7249 4.29093 77.6142 4.15135 77.5359C4.01519 77.4576 3.8603 77.4185 3.68668 77.4185C3.51307 77.4185 3.35818 77.4576 3.22201 77.5359C3.08584 77.6142 2.97691 77.7249 2.89521 77.8678C2.8135 78.0074 2.77265 78.1742 2.77265 78.3682C2.77265 78.5589 2.8135 78.7274 2.89521 78.8738C2.97691 79.0167 3.08584 79.1274 3.22201 79.2057C3.35818 79.284 3.51307 79.3231 3.68668 79.3231Z" fill="#677683"/>
<path opacity="0.5" d="M1.48344 79.7521C1.2111 79.7521 1.00004 79.6789 0.850259 79.5325C0.700475 79.3861 0.625582 79.1768 0.625582 78.9044V76.4228H1.11579V78.884C1.11579 79.0304 1.15153 79.1427 1.22302 79.221C1.29791 79.2993 1.40344 79.3385 1.53961 79.3385C1.6928 79.3385 1.82046 79.2959 1.92258 79.2108L2.07577 79.5631C2.00088 79.6278 1.91067 79.6755 1.80514 79.7061C1.70301 79.7367 1.59578 79.7521 1.48344 79.7521ZM0.166016 77.4185V77.0151H1.89194V77.4185H0.166016Z" fill="#677683"/>
</svg>
