<svg width="30" height="21" viewBox="0 0 30 21" fill="none" xmlns="http://www.w3.org/2000/svg">
<path fill-rule="evenodd" clip-rule="evenodd" d="M20.7315 18.4219L21.706 18.4939C19.9459 19.8653 17.7274 20.6855 15.3232 20.6855C11.0325 20.6855 7.34002 18.0771 5.76172 14.3677L6.4501 14.3803C6.56391 14.6279 6.68799 14.8675 6.82235 15.1024C7.11794 15.3935 7.43012 15.6656 7.75811 15.9163C7.64826 15.5058 7.56369 15.0059 7.57475 14.4468L7.87034 14.4626L8.21098 14.6168C8.21098 14.6168 8.16909 15.4164 8.44729 16.4051C9.74897 17.249 11.2356 17.8121 12.7926 18.0873C12.712 17.3004 12.712 16.5822 12.712 16.5822L13.5718 16.8551C13.5671 17.3747 13.5876 17.8216 13.62 18.206C15.0276 18.3602 16.4716 18.2866 17.8681 17.9758L18.5431 18.1308C16.8399 18.5279 15.196 18.6433 13.6485 18.4844C13.7497 19.3828 13.9172 19.8527 13.9638 19.9665C14.4072 20.0282 14.8617 20.0615 15.3232 20.0615C16.2021 20.0615 17.0541 19.9428 17.865 19.7253C18.2024 19.2381 18.4214 18.7042 18.5431 18.1308L19.218 18.24C19.218 18.24 19.0686 19.0024 18.6426 19.4793C19.384 19.2112 20.0842 18.8545 20.7315 18.4219ZM8.1193 16.8891C8.04579 16.7396 7.94542 16.511 7.84821 16.2232C7.60874 16.0381 7.37401 15.8419 7.1456 15.6363C7.43645 16.08 7.76285 16.4984 8.1193 16.8891ZM13.2146 19.8321C13.0202 19.5039 12.9001 18.9407 12.8273 18.3721C11.2735 18.1079 9.83038 17.5535 8.54371 16.7151C8.66068 17.056 8.81638 17.4103 9.02582 17.7575C10.2129 18.7596 11.6434 19.4849 13.2146 19.8321Z" fill="#2C2E35"/>
<path d="M28.0657 11.5318L28.7983 10.1018L25.9025 8.13162C26.4455 9.68893 26.7845 11.478 26.9829 13.4244L27.5077 12.5686C28.2261 15.4499 25.8448 16.8396 22.5041 17.1275H22.3002L22.2828 17.1449C18.765 17.394 14.2593 16.4631 11.1769 14.7895L10.1953 14.8599C12.8967 16.4844 16.933 17.5696 20.5867 17.8329C20.6017 17.8345 20.6159 17.8361 20.6317 17.8361C20.6333 17.8361 20.6349 17.8369 20.6357 17.8361C20.8262 17.8496 21.0143 17.8606 21.2024 17.8701H21.2221C21.8228 17.8836 22.5847 17.8701 22.5847 17.8701L22.5831 17.8931C27.4903 17.814 30.9694 15.9648 28.0657 11.5318ZM9.1102 13.9203L5.29919 9.06648L4.9791 10.933C0.163574 7.32647 -0.100399 3.10142 7.05769 2.61264L8.09778 1.83913C-0.59436 1.12019 -3.23883 6.15909 4.89928 11.8663L4.60606 13.547L9.1102 13.9203Z" fill="#0A80F7"/>
<path fill-rule="evenodd" clip-rule="evenodd" d="M25.7047 10.3428C25.7047 12.5407 25.0124 14.5797 23.834 16.2572H23.0887C23.0666 16.288 23.02 16.2635 23.0342 16.2279C23.0824 16.1061 23.1274 15.982 23.1677 15.857C22.9781 16.0365 22.7836 16.2137 22.6469 16.3213H22.168C22.168 16.3213 22.7884 15.9242 23.28 15.4758C23.5163 14.5718 23.5566 13.5958 23.4246 12.5984C22.4335 13.5602 21.0544 14.2166 19.4231 14.6342C19.4634 15.157 19.4895 15.683 19.499 16.2105L18.6715 16.1362C18.6423 15.6941 18.6059 15.2599 18.5672 14.8264C17.3295 15.07 15.9733 15.1958 14.5499 15.2251L12.5013 14.5251C12.5827 14.5401 12.6649 14.5544 12.7456 14.567C12.8578 13.2873 13.004 12.044 13.1858 10.841C11.7861 10.5919 10.5374 10.1094 9.54627 9.45851C9.159 10.3008 8.81441 11.1914 8.51408 12.1326L8.01775 11.4896C8.31492 10.6401 8.65714 9.8429 9.03808 9.09311C8.14816 8.3892 7.53565 7.53502 7.30092 6.5962C6.75637 7.26769 6.30825 8.01589 5.95655 8.84398L5.74395 8.61066C6.17152 7.67817 6.66944 6.8841 7.22583 6.20866C7.20608 6.05522 7.19343 5.90099 7.19343 5.7436C7.19343 5.41379 7.24164 5.0911 7.33016 4.77869C6.54931 5.88992 5.99449 7.16883 5.73447 8.55292C5.55901 8.35519 5.35985 8.13136 5.2168 7.97081C6.2964 3.40725 10.4172 0 15.3228 0C21.0465 0 25.7047 4.64028 25.7047 10.3428ZM23.8443 11.5291C24.5303 10.7042 24.9286 9.74008 24.9286 8.66048C24.8962 8.4762 24.8583 8.29587 24.8164 8.11713C24.4433 7.27323 23.9921 6.54321 23.4697 5.91444C23.4278 6.77258 23.0713 7.5801 22.4699 8.28796C22.5157 8.36627 22.5631 8.44061 22.6082 8.52049C23.2349 9.62382 23.6317 10.6212 23.8443 11.5291ZM23.3377 12.0677C23.1211 10.9423 22.6935 9.79782 22.0842 8.69924C21.2646 9.48541 20.1257 10.1205 18.7916 10.5278C19.0667 11.7126 19.2674 12.9362 19.3836 14.1779C20.9564 13.7184 22.3434 13.001 23.3377 12.0677ZM21.8337 8.26661C21.2053 7.22656 20.4134 6.23555 19.4864 5.34973C18.9916 5.81953 18.2969 6.20233 17.4789 6.4483C17.9484 7.56586 18.3467 8.76172 18.6636 10.0066C19.9495 9.62065 21.0465 9.0164 21.8337 8.26661ZM18.5285 14.3986C18.406 13.126 18.2439 11.8993 18.04 10.7271C17.1928 10.9217 16.2823 11.0277 15.3339 11.0277C14.8534 11.0277 14.3831 10.9992 13.9247 10.947C13.8094 12.1595 13.7177 13.3949 13.6576 14.6572L12.8112 14.5781C14.7072 14.8858 16.7091 14.8082 18.5285 14.3986ZM13.2719 10.2961C13.4766 9.03063 13.724 7.81342 14.0196 6.6492C13.1423 6.5013 12.3599 6.20866 11.7426 5.81478C10.9973 6.76467 10.3445 7.81816 9.77863 8.97131C10.727 9.59297 11.926 10.0564 13.2719 10.2961ZM11.4312 5.59728C10.8875 5.17731 10.5136 4.66796 10.3801 4.108C9.30521 4.67745 8.39079 5.37741 7.63681 6.20708C7.84467 7.11188 8.42952 7.93838 9.28704 8.61698C9.90271 7.4931 10.6195 6.48785 11.4312 5.59728ZM7.57121 5.8132C8.38605 4.93292 9.3147 4.27409 10.3303 3.78847C10.3255 3.74022 10.324 3.69198 10.324 3.64215C10.324 3.14308 10.5152 2.66933 10.8511 2.25094C10.2757 2.35692 9.72725 2.5325 9.20247 2.78164C8.70693 3.18184 8.2509 3.62712 7.8423 4.11432C7.6542 4.54537 7.55145 4.99935 7.55145 5.46836C7.55145 5.58463 7.55857 5.7001 7.57121 5.8132ZM9.86082 2.29602C10.2433 2.14337 10.663 2.03106 11.1143 1.96304C11.5387 1.55019 12.1141 1.20535 12.7922 0.957794C11.7331 1.24094 10.746 1.69809 9.86082 2.29602ZM17.0521 6.56061C16.5115 6.68637 15.9267 6.75518 15.3149 6.75518C15.0241 6.75518 14.7396 6.73778 14.463 6.70851C14.2685 7.90833 14.1081 9.13978 13.9793 10.3989C14.4274 10.4503 14.8874 10.478 15.3584 10.478C16.2657 10.478 17.1351 10.3783 17.9436 10.1964C17.7026 8.91358 17.4086 7.70032 17.0521 6.56061ZM15.1316 2.30551L15.1118 2.34584C14.3088 1.3746 13.5406 1.04163 13.2205 0.937231C12.533 1.1658 11.9528 1.50511 11.534 1.9148C12.5361 1.83254 13.6631 1.96779 14.8423 2.38776L14.9111 2.42968C13.6276 2.14812 12.4144 2.04688 11.2913 2.18529C10.9965 2.56097 10.8298 2.98253 10.8298 3.42939C10.8298 3.47448 10.8314 3.51956 10.8361 3.56464C12.069 3.05529 13.4189 2.77373 14.8423 2.6369C13.3541 2.90739 12.0335 3.3155 10.8811 3.85886C11.0036 4.35713 11.3348 4.8127 11.8161 5.18917C12.7535 4.23692 13.8109 3.42781 14.9838 2.75712C13.9026 3.49899 12.9431 4.38007 12.0927 5.3869C12.6476 5.74677 13.3541 6.01409 14.1484 6.15013C14.4582 4.99777 14.8162 3.90078 15.2264 2.86073C14.9656 3.94428 14.7427 5.06184 14.5483 6.20549C14.8036 6.23397 15.0652 6.24899 15.3339 6.24899C15.8832 6.24899 16.4088 6.1873 16.894 6.07499C16.502 4.90603 16.0444 3.81852 15.5078 2.8283C16.1646 3.76395 16.7573 4.82377 17.2718 5.97534C18.0124 5.75467 18.6407 5.40905 19.0912 4.98433C18.2115 4.20449 17.2252 3.51639 16.1488 2.96671C16.1132 2.9501 16.1361 2.89553 16.1717 2.90897C17.2363 3.29257 18.3261 3.87863 19.3607 4.69327C19.6658 4.31284 19.8381 3.88338 19.8381 3.42939C19.8381 3.40725 19.8365 3.38589 19.8349 3.36375C18.5909 2.88604 17.1975 2.6195 15.6904 2.51431C17.0853 2.489 18.4597 2.64165 19.8025 3.07586C19.7061 2.59815 19.42 2.15603 18.99 1.78272C17.2331 1.69334 15.7662 2.35375 15.6809 2.39251C16.7368 1.73605 17.8954 1.57708 18.7166 1.56759C18.1151 1.13812 17.309 0.824921 16.393 0.686511C15.9591 1.1223 15.424 2.2367 15.3853 2.30709C15.5702 1.48217 15.869 0.828085 15.9543 0.647757C15.7457 0.63352 15.5362 0.62482 15.3228 0.62482C15.0138 0.62482 14.7056 0.639848 14.4037 0.668321C14.1547 0.700748 13.9153 0.74583 13.6837 0.803566C14.4274 1.23778 15.1316 2.30551 15.1316 2.30551ZM17.7911 0.940394C18.2597 1.10886 18.681 1.32161 19.0374 1.57075C19.2753 1.57866 19.4713 1.59685 19.6065 1.61425C19.0311 1.33269 18.4226 1.10569 17.7911 0.940394ZM20.3344 2.00813C20.0032 1.91005 19.6729 1.84757 19.3496 1.81198C19.8301 2.22325 20.1502 2.70966 20.2609 3.23799C21.3515 3.65639 22.3276 4.25115 23.1385 5.05235C23.1045 4.79214 23.0389 4.53746 22.9457 4.28991C22.2193 3.38431 21.3357 2.60922 20.3344 2.00813ZM20.3043 3.64215C20.3043 4.14359 20.1131 4.61655 19.7756 5.03732C20.6561 5.79659 21.4867 6.73303 22.213 7.86799C22.7979 7.1799 23.1369 6.39531 23.1614 5.56169C22.3497 4.69011 21.3871 4.03444 20.3012 3.55515C20.3028 3.58441 20.3043 3.61288 20.3043 3.64215ZM23.3558 4.83959C23.4041 5.01834 23.4372 5.20183 23.4554 5.3869C23.7684 5.73727 24.0513 6.12324 24.3019 6.54638C24.045 5.94449 23.7265 5.37346 23.3558 4.83959ZM25.078 10.3428C25.078 10.0177 25.0606 9.69658 25.0298 9.38101C24.8836 10.4179 24.5074 11.2903 23.9439 12.0171C24.132 13.1505 24.0806 14.0482 23.7605 14.934C23.7731 14.9174 23.7668 14.9277 23.7621 14.9356L23.7747 15.1895C24.6022 13.7619 25.078 12.1065 25.078 10.3428Z" fill="#2C2E35"/>
</svg>
